<?xml version="1.0" encoding="utf-8"?>
<!-- Generator: Adobe Illustrator 26.4.0, SVG Export Plug-In . SVG Version: 6.00 Build 0)  -->
<svg version="1.1" id="Layer_1" xmlns="http://www.w3.org/2000/svg" xmlns:xlink="http://www.w3.org/1999/xlink" x="0px" y="0px"
	 viewBox="0 0 1651 390.5" style="enable-background:new 0 0 1651 390.5;" xml:space="preserve">
<style type="text/css">
	.st0{fill:#EDEDED;}
	.st1{fill:#D6D6D6;}
	.st2{fill:#FFFFFF;}
	.st3{fill:none;stroke:#D6D6D6;stroke-miterlimit:10;}
	.st4{fill:#25408F;}
	.st5{fill:none;stroke:#D6D6D6;stroke-linejoin:round;stroke-miterlimit:10;}
	.st6{fill:#C4161C;stroke:#D6D6D6;stroke-linejoin:round;stroke-miterlimit:10;}
	.st7{fill:#C4161C;}
</style>
<g>
	<path class="st0" d="M193,166v130h43V166H193z M232,291h-36v-11h36V291z M232,277h-36v-11h36V277z M232,263h-36v-11h36V263z
		 M232,249h-36v-11h36V249z M232,235h-36v-11h36V235z M232,221h-36v-11h36V221z M232,206h-36v-11h36V206z M232,192h-36v-11h36V192z"
		/>
	<path class="st1" d="M236,166v130h-43V166H236 M196,192h36v-11h-36V192 M196,206h36v-11h-36V206 M196,221h36v-11h-36V221 M196,235
		h36v-11h-36V235 M196,249h36v-11h-36V249 M196,263h36v-11h-36V263 M196,277h36v-11h-36V277 M196,291h36v-11h-36V291 M237,165h-1
		h-43h-1v1v130v1h1h43h1v-1V166V165L237,165z M197,182h34v9h-34V182L197,182z M197,196h34v9h-34V196L197,196z M197,211h34v9h-34V211
		L197,211z M197,225h34v9h-34V225L197,225z M197,239h34v9h-34V239L197,239z M197,253h34v9h-34V253L197,253z M197,267h34v9h-34V267
		L197,267z M197,281h34v9h-34V281L197,281z"/>
</g>
<g>
	<g>
		<polygon class="st0" points="68.5,346.5 68.5,208.6 95.5,189.2 95.5,346.5 		"/>
		<g>
			<path class="st1" d="M95,190.2V346H69V208.8L95,190.2 M96,188.2l-28,20.1V347h28V188.2L96,188.2z"/>
		</g>
	</g>
	<g>
		<rect x="74" y="216" class="st1" width="2" height="65"/>
		<rect x="88" y="203" class="st1" width="2" height="126"/>
		<rect x="81" y="209" class="st1" width="2" height="99"/>
	</g>
</g>
<g>
	<g>
		<rect x="105.5" y="219.5" class="st0" width="30" height="94"/>
		<g>
			<path class="st1" d="M135,220v93h-29v-93H135 M136,219h-31v95h31V219L136,219z"/>
		</g>
	</g>
	<rect x="112" y="207" class="st1" width="2" height="13"/>
	<rect x="105" y="223" class="st1" width="31" height="2"/>
	<g>
		<rect x="113" y="230" class="st1" width="17" height="2"/>
		<rect x="113" y="239" class="st1" width="17" height="2"/>
		<rect x="113" y="247" class="st1" width="17" height="2"/>
		<rect x="113" y="255" class="st1" width="17" height="2"/>
		<rect x="113" y="263" class="st1" width="17" height="2"/>
		<rect x="113" y="272" class="st1" width="17" height="2"/>
		<rect x="113" y="281" class="st1" width="17" height="2"/>
		<rect x="113" y="289" class="st1" width="17" height="2"/>
		<rect x="113" y="298" class="st1" width="17" height="2"/>
	</g>
	<g>
		<rect x="114.5" y="305.5" class="st2" width="13" height="8"/>
		<g>
			<path class="st1" d="M127,306v7h-12v-7H127 M128,305h-14v9h14V305L128,305z"/>
		</g>
	</g>
</g>
<g>
	<path class="st0" d="M931,215v103h17v-12h22v12h18V215H931z M944,317h-7v-11h7V317z M944,295h-7v-76h7V295z M954,295h-7v-76h7V295z
		 M963,295h-7v-76h7V295z M973,295h-7v-76h7V295z M983,317h-7v-11h7V317z M983,295h-7v-76h7V295z"/>
	<g>
		<path class="st1" d="M937,295h7v-76h-7V295z M938,220h5v74h-5V220z"/>
		<path class="st1" d="M976,317h7v-11h-7V317z M977,307h5v9h-5V307z"/>
		<path class="st1" d="M937,317h7v-11h-7V317z M938,307h5v9h-5V307z"/>
		<path class="st1" d="M947,295h7v-76h-7V295z M948,220h5v74h-5V220z"/>
		<path class="st1" d="M956,295h7v-76h-7V295z M957,220h5v74h-5V220z"/>
		<path class="st1" d="M966,295h7v-76h-7V295z M967,220h5v74h-5V220z"/>
		<path class="st1" d="M976,295h7v-76h-7V295z M977,220h5v74h-5V220z"/>
	</g>
	<path class="st1" d="M984,214v-9h-7v-16h-2v16h-8v9h-37v105h59V214H984z M959,318h-10v-11h10V318z M962,318v-11h7v11H962z M988,318
		h-18v-12h-8h-3h-11v12h-17V215h57V318z"/>
</g>
<g>
	<path class="st3" d="M906.6,306.2c-3.4,0-7.6-0.4-9.3-2.3c-0.7-0.8-1-1.8-0.8-3c0.4-2.1,1.3-3.6,2.8-4.4c1.5-0.9,3.3-0.8,4.2-0.6
		v-0.1c0.5-1.2,3.2-3.5,5.8-3.4c2.4,0.1,4.2,1.7,5.2,4.7c0.4,1.1,0.9,1.7,1.3,2c0.3-0.2,0.9-0.4,2-0.4c2,0,2.8,1.2,3.9,2.9l0.3,0.5
		c0.4,0.6,0.5,1.2,0.4,1.9c-0.3,1.3-1.8,2-1.8,2l-0.1,0.1h-8.9C911.4,306,909.2,306.2,906.6,306.2z M902.1,296.8
		c-0.7,0-1.6,0.1-2.3,0.6c-1.1,0.7-1.9,1.9-2.3,3.7c-0.2,0.8,0,1.5,0.5,2.1c2.7,3,13.3,1.7,13.4,1.7h8.8c0.4-0.2,1-0.7,1.2-1.3
		c0.1-0.3,0-0.7-0.2-1.1l-0.3-0.5c-1.1-1.7-1.6-2.4-3-2.4c-1,0-1.3,0.2-1.4,0.2v0.7l-0.7-0.4c-0.1,0-1.5-0.7-2.1-2.8
		c-0.9-2.6-2.3-3.9-4.3-4h-0.1c-2.3,0-4.6,2.3-4.8,2.9l1.4,1.4l-2-0.7C903.8,297.1,903.1,296.8,902.1,296.8z"/>
	<path class="st3" d="M912.6,305.9c-0.6-0.2-1-0.6-1.2-1.1c-0.5-1.2,0.2-2.6,0.3-2.8c0.5-1.6,2.2-1.8,3.3-1.6l0.5-0.9l0.9,0.4
		l-0.8,1.6l-0.4-0.1c-0.1,0-2.1-0.5-2.6,0.9c-0.2,0.4-0.6,1.4-0.3,2c0.1,0.2,0.3,0.4,0.6,0.5L912.6,305.9z"/>
	<g>
		<path class="st0" d="M901.8,287.6c-5.6,0-10.2-4.6-10.2-10.2s4.6-10.2,10.2-10.2c5.6,0,10.2,4.6,10.2,10.2
			S907.4,287.6,901.8,287.6z"/>
		<g>
			<path class="st1" d="M901.8,267.6c5.4,0,9.7,4.4,9.7,9.7s-4.4,9.7-9.7,9.7s-9.7-4.4-9.7-9.7S896.4,267.6,901.8,267.6
				 M901.8,266.6c-5.9,0-10.7,4.8-10.7,10.7s4.8,10.7,10.7,10.7s10.7-4.8,10.7-10.7S907.7,266.6,901.8,266.6L901.8,266.6z"/>
		</g>
	</g>
	<rect x="900.9" y="275.5" class="st1" width="1" height="21.1"/>
	<polygon class="st1" points="901.4,284.9 896.6,279.2 897.3,278.5 901.5,283.4 906.1,278.6 906.8,279.3 	"/>
</g>
<g>
	<g>
		<g>
			<g>
				<polygon class="st4" points="1045.5,306.5 1056.5,306.5 1045.5,306.5 1045.5,315.5 				"/>
			</g>
			<g>
				<path class="st1" d="M1057,306h-12v10h12V306L1057,306z M1050,315v-8h6v8H1050L1050,315z M1046,315v-8h3v8H1046L1046,315z"/>
			</g>
		</g>
		<g>
			<g>
				<polygon class="st4" points="1027.5,306.5 1038.5,306.5 1027.5,306.5 1027.5,315.5 				"/>
			</g>
			<g>
				<path class="st1" d="M1039,306h-12v10h12V306L1039,306z M1032,315v-8h6v8H1032L1032,315z M1028,315v-8h3v8H1028L1028,315z"/>
			</g>
		</g>
		<g>
			<g>
				<polygon class="st4" points="1008.5,263.5 1019.5,263.5 1008.5,263.5 1008.5,272.5 				"/>
			</g>
			<g>
				<path class="st1" d="M1020,263h-12v10h12V263L1020,263z M1014,272v-8h5v8H1014L1014,272z M1009,272v-8h4v8H1009L1009,272z"/>
			</g>
		</g>
		<g>
			<g>
				<polygon class="st4" points="1027.5,263.5 1038.5,263.5 1027.5,263.5 1027.5,272.5 				"/>
			</g>
			<g>
				<path class="st1" d="M1039,263h-12v10h12V263L1039,263z M1032,272v-8h6v8H1032L1032,272z M1028,272v-8h3v8H1028L1028,272z"/>
			</g>
		</g>
		<g>
			<g>
				<polygon class="st4" points="1045.5,263.5 1056.5,263.5 1045.5,263.5 1045.5,272.5 				"/>
			</g>
			<g>
				<path class="st1" d="M1057,263h-12v10h12V263L1057,263z M1050,272v-8h6v8H1050L1050,272z M1046,272v-8h3v8H1046L1046,272z"/>
			</g>
		</g>
		<g>
			<g>
				<polygon class="st4" points="1008.5,278.5 1019.5,278.5 1008.5,278.5 1008.5,287.5 				"/>
			</g>
			<g>
				<path class="st1" d="M1020,278h-12v10h12V278L1020,278z M1014,287v-8h5v8H1014L1014,287z M1009,287v-8h4v8H1009L1009,287z"/>
			</g>
		</g>
		<g>
			<g>
				<polygon class="st4" points="1027.5,278.5 1038.5,278.5 1027.5,278.5 1027.5,287.5 				"/>
			</g>
			<g>
				<path class="st1" d="M1039,278h-12v10h12V278L1039,278z M1032,287v-8h6v8H1032L1032,287z M1028,287v-8h3v8H1028L1028,287z"/>
			</g>
		</g>
		<g>
			<g>
				<polygon class="st4" points="1045.5,278.5 1056.5,278.5 1045.5,278.5 1045.5,287.5 				"/>
			</g>
			<g>
				<path class="st1" d="M1057,278h-12v10h12V278L1057,278z M1050,287v-8h6v8H1050L1050,287z M1046,287v-8h3v8H1046L1046,287z"/>
			</g>
		</g>
		<g>
			<g>
				<polygon class="st4" points="1008.5,292.5 1019.5,292.5 1008.5,292.5 1008.5,301.5 				"/>
			</g>
			<g>
				<path class="st1" d="M1020,292h-12v10h12V292L1020,292z M1014,301v-8h5v8H1014L1014,301z M1009,301v-8h4v8H1009L1009,301z"/>
			</g>
		</g>
		<g>
			<g>
				<polygon class="st4" points="1027.5,292.5 1038.5,292.5 1027.5,292.5 1027.5,301.5 				"/>
			</g>
			<g>
				<path class="st1" d="M1039,292h-12v10h12V292L1039,292z M1032,301v-8h6v8H1032L1032,301z M1028,301v-8h3v8H1028L1028,301z"/>
			</g>
		</g>
		<g>
			<g>
				<polygon class="st4" points="1045.5,292.5 1056.5,292.5 1045.5,292.5 1045.5,301.5 				"/>
			</g>
			<g>
				<path class="st1" d="M1057,292h-12v10h12V292L1057,292z M1050,301v-8h6v8H1050L1050,301z M1046,301v-8h3v8H1046L1046,301z"/>
			</g>
		</g>
		<g>
			<g>
				<polygon class="st4" points="1008.5,306.5 1019.5,306.5 1008.5,306.5 1008.5,315.5 				"/>
			</g>
			<g>
				<path class="st1" d="M1020,306h-12v10h12V306L1020,306z M1014,315v-8h5v8H1014L1014,315z M1009,315v-8h4v8H1009L1009,315z"/>
			</g>
		</g>
	</g>
	<path class="st0" d="M1003,251v83h7v-14h46v14h7v-83H1003z M1020,316h-12v-10h12V316z M1020,302h-12v-10h12V302z M1020,288h-12v-10
		h12V288z M1020,273h-12v-10h12V273z M1039,316h-12v-10h12V316z M1039,302h-12v-10h12V302z M1039,288h-12v-10h12V288z M1039,273h-12
		v-10h12V273z M1057,316h-12v-10h12V316z M1057,302h-12v-10h12V302z M1057,288h-12v-10h12V288z M1057,273h-12v-10h12V273z"/>
	<path class="st1" d="M1034,250v-7h-3v-11h-1v11h-2v-7h-1v7h-15v7h-10v85h62v-85H1034z M1032,334h-21v-13h21V334z M1034,321h21v13
		h-21V321z M1063,334h-7v-14h-46v14h-7v-75h60V334z M1063,258h-60v-7h60V258z"/>
</g>
<path class="st0" d="M1077,279v49h5v-16h29v16h6v-49H1077z M1090,308h-10v-11h10V308z M1090,295h-10v-11h10V295z M1102,308h-10v-11
	h10V308z M1102,295h-10v-11h10V295z M1114,308h-10v-11h10V308z M1114,295h-10v-11h10V295z"/>
<g>
	<path class="st0" d="M1090,195v66h27v-66H1090z M1110,260h-12v-47h12V260z"/>
	<rect x="1103" y="177" class="st1" width="1" height="10"/>
	<path class="st1" d="M1110,213h-12v47h12V213z M1099,214h10v3h-10V214z M1099,218h10v3h-10V218z M1099,222h10v3h-10V222z M1099,226
		h10v3h-10V226z M1099,230h10v3h-10V230z M1099,234h10v3h-10V234z M1099,238h10v3h-10V238z M1099,242h10v3h-10V242z M1099,246h10v3
		h-10V246z M1099,250h10v3h-10V250z M1099,259v-5h10v5H1099z"/>
	<g>
		<g>
			<path class="st1" d="M1114,194v-7h-21v7h-4v67v1h1h27h1v-1v-67H1114z M1112,189v5h-4v-5H1112z M1106,189v5h-4v-5H1106z M1096,189
				h4v5h-4V189z M1117,261h-3v-59h-1v59h-18v-59h-1v59h-4v-66h3h3h4h2h4h2h4h2h3V261z"/>
		</g>
	</g>
</g>
<g>
	<path class="st1" d="M618,303.2c-3.9,0-7,3.1-7,7v2h1v-2c0-3.3,2.7-6,6-6s6,2.7,6,6v2v41v1h1v-44C625,306.3,621.8,303.2,618,303.2z
		"/>
	<path class="st1" d="M634,309.2c3.9,0,7,3.1,7,7v2h-1v-2c0-3.3-2.7-6-6-6s-6,2.7-6,6v2v35v1h-1v-38
		C627,312.3,630.1,309.2,634,309.2z"/>
	<g>
		<circle class="st0" cx="612" cy="315.2" r="4.5"/>
		<path class="st1" d="M612,311.2c2.2,0,4,1.8,4,4s-1.8,4-4,4s-4-1.8-4-4S609.8,311.2,612,311.2 M612,310.2c-2.8,0-5,2.2-5,5
			s2.2,5,5,5s5-2.2,5-5S614.7,310.2,612,310.2L612,310.2z"/>
	</g>
	<g>
		<circle class="st0" cx="641" cy="322.2" r="4.5"/>
		<path class="st1" d="M641,318.2c2.2,0,4,1.8,4,4s-1.8,4-4,4s-4-1.8-4-4S638.8,318.2,641,318.2 M641,317.2c-2.8,0-5,2.2-5,5
			s2.2,5,5,5s5-2.2,5-5S643.7,317.2,641,317.2L641,317.2z"/>
	</g>
</g>
<g>
	<path class="st1" d="M1186,301c-3.9,0-7,3.1-7,7v2h1v-2c0-3.3,2.7-6,6-6s6,2.7,6,6v2v41v1h1v-44C1193,304.1,1189.9,301,1186,301z"
		/>
	<path class="st1" d="M1202,307c3.9,0,7,3.1,7,7v2h-1v-2c0-3.3-2.7-6-6-6s-6,2.7-6,6v2v35v1h-1v-38C1195,310.1,1198.1,307,1202,307z
		"/>
	<g>
		<circle class="st0" cx="1180" cy="313" r="4.5"/>
		<path class="st1" d="M1180,309c2.2,0,4,1.8,4,4s-1.8,4-4,4s-4-1.8-4-4S1177.8,309,1180,309 M1180,308c-2.8,0-5,2.2-5,5s2.2,5,5,5
			s5-2.2,5-5S1182.8,308,1180,308L1180,308z"/>
	</g>
	<g>
		<circle class="st0" cx="1209" cy="320" r="4.5"/>
		<path class="st1" d="M1209,316c2.2,0,4,1.8,4,4s-1.8,4-4,4s-4-1.8-4-4S1206.8,316,1209,316 M1209,315c-2.8,0-5,2.2-5,5s2.2,5,5,5
			s5-2.2,5-5S1211.8,315,1209,315L1209,315z"/>
	</g>
</g>
<g>
	<path class="st1" d="M375.8,257.8c-3.5,0-6.3,2.8-6.3,6.3v1.8h0.9v-1.8c0-3,2.4-5.4,5.4-5.4s5.4,2.4,5.4,5.4v1.8v36.8v0.9h0.9
		v-39.5C382.1,260.6,379.3,257.8,375.8,257.8z"/>
	<path class="st1" d="M390.2,263.2c3.5,0,6.3,2.8,6.3,6.3v1.8h-0.9v-1.8c0-3-2.4-5.4-5.4-5.4s-5.4,2.4-5.4,5.4v1.8v31.4v0.9h-0.9
		v-34.1C383.9,266,386.7,263.2,390.2,263.2z"/>
	<g>
		<path class="st0" d="M370.5,272.6c-2.2,0-4-1.8-4-4s1.8-4,4-4s4,1.8,4,4S372.7,272.6,370.5,272.6z"/>
		<path class="st1" d="M370.5,265.1c1.9,0,3.5,1.6,3.5,3.5s-1.6,3.5-3.5,3.5s-3.5-1.6-3.5-3.5S368.5,265.1,370.5,265.1 M370.5,264.1
			c-2.5,0-4.5,2-4.5,4.5s2,4.5,4.5,4.5s4.5-2,4.5-4.5C374.9,266.1,372.9,264.1,370.5,264.1L370.5,264.1z"/>
	</g>
	<g>
		<circle class="st0" cx="396.5" cy="274.9" r="4"/>
		<path class="st1" d="M396.5,271.4c1.9,0,3.5,1.6,3.5,3.5s-1.6,3.5-3.5,3.5s-3.5-1.6-3.5-3.5S394.6,271.4,396.5,271.4 M396.5,270.4
			c-2.5,0-4.5,2-4.5,4.5s2,4.5,4.5,4.5s4.5-2,4.5-4.5S399,270.4,396.5,270.4L396.5,270.4z"/>
	</g>
</g>
<g>
	<g>
		<rect x="777.5" y="323.5" class="st0" width="8" height="4"/>
		<path class="st1" d="M785,324v3h-7v-3H785 M786,323h-9v5h9V323L786,323z"/>
	</g>
	<g>
		<rect x="802.5" y="312.5" class="st0" width="8" height="4"/>
		<path class="st1" d="M810,313v3h-7v-3H810 M811,312h-9v5h9V312L811,312z"/>
	</g>
	<polygon class="st1" points="778,319 786,319 793,326 793,368 792,368 791.9,326 785.9,320 778,320 	"/>
	<polygon class="st1" points="810,309 802,309 795,316 795,368 796,368 796,316 802,310 810,310 	"/>
</g>
<g>
	<g>
		<rect x="1237.5" y="322.5" class="st0" width="8" height="4"/>
		<path class="st1" d="M1245,323v3h-7v-3H1245 M1246,322h-9v5h9V322L1246,322z"/>
	</g>
	<g>
		<rect x="1262.5" y="311.5" class="st0" width="8" height="4"/>
		<path class="st1" d="M1270,312v3h-7v-3H1270 M1271,311h-9v5h9V311L1271,311z"/>
	</g>
	<polygon class="st1" points="1238,318 1246,318 1253,325 1253,367 1252,367 1251.9,325 1245.9,319 1238,319 	"/>
	<polygon class="st1" points="1270,308 1262,308 1255,315 1255,367 1256,367 1256,315 1262,309 1270,309 	"/>
</g>
<g>
	<g>
		<rect x="465.5" y="326.7" class="st0" width="8" height="4"/>
		<path class="st1" d="M473,327.2v3h-7v-3H473 M474,326.2h-9v5h9V326.2L474,326.2z"/>
	</g>
	<g>
		<rect x="490.5" y="315.7" class="st0" width="8" height="4"/>
		<path class="st1" d="M498,316.2v3h-7v-3H498 M499,315.2h-9v5h9V315.2L499,315.2z"/>
	</g>
	<polygon class="st1" points="466,322.2 474,322.2 481,329.2 481,361.2 480,361.2 479.9,329.2 473.9,323.2 466,323.2 	"/>
	<polygon class="st1" points="498,312.2 490,312.2 483,319.2 483,361.2 484,361.2 484,319.2 490,313.2 498,313.2 	"/>
</g>
<g>
	<g>
		<path class="st1" d="M184,236v70.2h-35v-49.4L184,236 M185,234.2l-37,22v51h37V234.2L185,234.2z"/>
	</g>
	<rect x="154" y="269.2" class="st1" width="1" height="34"/>
	<rect x="159" y="266.2" class="st1" width="1" height="37"/>
	<rect x="164" y="263.2" class="st1" width="1" height="40"/>
	<rect x="169" y="260.2" class="st1" width="1" height="43"/>
	<rect x="174" y="257.2" class="st1" width="1" height="46"/>
	<rect x="179" y="254.2" class="st1" width="1" height="49"/>
</g>
<path class="st1" d="M298.5,168.2c0,0-1-7.5,6-7.5s6.4,3.7,6.4,3.7s3.6-3.7,6.6-0.7s1.4,5.5,1.4,5.5s5.1,1.1,3.9,5.8
	s-7.2,3.7-7.2,3.7s-2,3.4-5.5,3.2s-7.5-2.2-7.5-2.2s-1,2-7,1s-7-1-8-3s-0.2-5,2.9-4.5c0,0-0.6-4.5,3.2-5.5S298.5,168.2,298.5,168.2z
	"/>
<path class="st1" d="M404.5,170.2c0,0-0.2-3.5,2.9-5s5.5,0,5.5,0s2.6-2.5,5.6-1.5s4,4,3.5,5.5c0,0,4.2,0.5,2.9,4.5s-7.1,2.5-7.1,2.5
	s-3.2,3.5-8.2,1.5c0,0-4.8,0.6-6.9-2.7S404.5,170.2,404.5,170.2z"/>
<path class="st3" d="M143.5,194.3c0,0-0.2-2.1,2.9-3.1s5.5,0,5.5,0s2.6-1.5,5.6-0.9s4,2.5,3.5,3.4c0,0,4.2,0.3,2.9,2.8
	s-7.1,1.5-7.1,1.5s-3.2,2.1-8.2,0.9c0,0-4.8,0.4-6.9-1.6S143.5,194.3,143.5,194.3z"/>
<path class="st1" d="M775.5,222.2c0,0-1-7.5,6-7.5s6.4,3.7,6.4,3.7s3.6-3.7,6.6-0.7s1.4,5.5,1.4,5.5s5.1,1.1,3.9,5.8
	s-7.2,3.7-7.2,3.7s-2,3.4-5.5,3.2s-7.5-2.2-7.5-2.2s-1,2-7,1s-7-1-8-3s-0.2-5,2.9-4.5c0,0-0.6-4.5,3.2-5.5S775.5,222.2,775.5,222.2z
	"/>
<path class="st3" d="M881.5,224.2c0,0-0.2-3.5,2.9-5s5.5,0,5.5,0s2.6-2.5,5.6-1.5s4,4,3.5,5.5c0,0,4.2,0.5,2.9,4.5s-7.1,2.5-7.1,2.5
	s-3.2,3.5-8.2,1.5c0,0-4.8,0.6-6.9-2.7S881.5,224.2,881.5,224.2z"/>
<g>
	<g>
		<circle class="st2" cx="174" cy="337.2" r="9"/>
		<g>
			<path class="st1" d="M174,328.7c4.7,0,8.5,3.8,8.5,8.5s-3.8,8.5-8.5,8.5s-8.5-3.8-8.5-8.5S169.3,328.7,174,328.7 M174,327.7
				c-5.2,0-9.5,4.3-9.5,9.5s4.3,9.5,9.5,9.5s9.5-4.3,9.5-9.5S179.2,327.7,174,327.7L174,327.7z"/>
		</g>
	</g>
	<polygon class="st1" points="170,339.2 170.5,339.7 172.5,341.2 173,341.2 173,339.1 175,340.2 175,344.2 178,343.2 180,341.2 
		180,342.2 175,345.2 175,351.2 173,351.2 173,343.2 172,342.2 171,341.2 169,342.2 170,340.2 	"/>
</g>
<g>
	<g>
		<circle class="st0" cx="262" cy="256.2" r="9"/>
		<g>
			<path class="st1" d="M262,247.7c4.7,0,8.5,3.8,8.5,8.5s-3.8,8.5-8.5,8.5s-8.5-3.8-8.5-8.5S257.3,247.7,262,247.7 M262,246.7
				c-5.2,0-9.5,4.3-9.5,9.5s4.3,9.5,9.5,9.5s9.5-4.3,9.5-9.5S267.2,246.7,262,246.7L262,246.7z"/>
		</g>
	</g>
	<polygon class="st1" points="258,258.2 258.5,258.7 260.5,260.2 261,260.2 261,258.1 263,259.2 263,263.2 266,262.2 268,260.2 
		268,261.2 263,264.2 263,271.2 261,272.2 261,262.2 260,261.2 259,260.2 257,261.2 258,259.2 	"/>
</g>
<g>
	<g>
		<circle class="st2" cx="1255" cy="266.2" r="9"/>
		<g>
			<path class="st1" d="M1255,257.7c4.7,0,8.5,3.8,8.5,8.5s-3.8,8.5-8.5,8.5s-8.5-3.8-8.5-8.5S1250.3,257.7,1255,257.7 M1255,256.7
				c-5.2,0-9.5,4.3-9.5,9.5s4.3,9.5,9.5,9.5s9.5-4.3,9.5-9.5S1260.2,256.7,1255,256.7L1255,256.7z"/>
		</g>
	</g>
	<polygon class="st1" points="1251,268.2 1251.5,268.7 1253.5,270.2 1254,270.2 1254,268.1 1256,269.2 1256,273.2 1259,272.2 
		1261,270.2 1261,271.2 1256,274.2 1256,280.2 1254,280.2 1254,272.2 1253,271.2 1252,270.2 1250,271.2 1251,269.2 	"/>
</g>
<g>
	<g>
		<ellipse class="st0" cx="312.8" cy="245.8" rx="6.4" ry="15.1"/>
		<g>
			<path class="st1" d="M312.8,231.2c2.8,0,5.9,6,5.9,14.6s-3.1,14.6-5.9,14.6s-5.9-6-5.9-14.6C307,237.2,310.1,231.2,312.8,231.2
				 M312.8,230.2c-3.8,0-6.9,7-6.9,15.6s3.1,15.6,6.9,15.6s6.9-7,6.9-15.6C319.7,237.2,316.6,230.2,312.8,230.2L312.8,230.2z"/>
		</g>
	</g>
	<polygon class="st1" points="312.7,239.5 313.6,239.5 313.2,270.1 312.1,270.1 	"/>
	<polygon class="st1" points="310,253.9 313.3,257.5 313,258.7 310,254.5 	"/>
	<polygon class="st1" points="313.4,253.6 316.3,250.9 316.6,251.5 313.3,254.8 	"/>
	<polygon class="st1" points="313.3,248.2 310.8,245.8 310.6,246.1 313.3,249.1 	"/>
	<polygon class="st1" points="313.3,245.3 315.4,243.1 315.4,243.8 313.6,246.1 	"/>
	<polygon class="st1" points="313.3,241.9 311.7,240.5 312,239.8 313.3,241.5 	"/>
</g>
<g>
	<g>
		<ellipse class="st0" cx="328" cy="250.9" rx="4.6" ry="11.8"/>
		<g>
			<path class="st1" d="M328,239.6c1.9,0,4.1,4.8,4.1,11.3c0,6.5-2.2,11.3-4.1,11.3s-4.1-4.8-4.1-11.3S326,239.6,328,239.6
				 M328,238.6c-2.8,0-5.1,5.5-5.1,12.3s2.3,12.3,5.1,12.3s5.1-5.5,5.1-12.3S330.8,238.6,328,238.6L328,238.6z"/>
		</g>
	</g>
	<polygon class="st1" points="328,246.2 329,246.2 329,270.2 328,270.6 	"/>
	<polygon class="st1" points="327.1,247 328.8,249.7 328.4,250.2 326.9,247.4 	"/>
	<polygon class="st1" points="328.4,252.4 330.1,251.2 330.3,251.8 328.3,253 	"/>
	<polygon class="st1" points="328.3,257.4 325.9,255.4 325.9,256 328.4,258.7 	"/>
</g>
<g>
	<g>
		<polygon class="st0" points="468.2,238.7 473.1,227.7 482.5,227.7 488,238.7 		"/>
		<g>
			<path class="st1" d="M482.2,228.2l5,10H469l4.4-10H482.2 M482.8,227.2h-10.1l-5.3,12h21.4L482.8,227.2L482.8,227.2z"/>
		</g>
	</g>
	<g>
		<polygon class="st0" points="469.5,226.7 473.5,218.7 481.9,218.7 486.2,226.7 		"/>
		<g>
			<path class="st1" d="M481.6,219.2l3.7,7h-15.1l3.5-7H481.6 M482.2,218.2h-9.1l-4.5,9H487L482.2,218.2L482.2,218.2z"/>
		</g>
	</g>
	<g>
		<polygon class="st0" points="471.5,217.7 475.8,210.7 480.1,210.7 483.8,217.7 		"/>
		<g>
			<path class="st1" d="M479.8,211.2l3.2,6h-10.6l3.6-6H479.8 M480.4,210.2h-4.9l-4.8,8h14L480.4,210.2L480.4,210.2z"/>
		</g>
	</g>
	<g>
		<polygon class="st0" points="474,209.7 477.7,201.2 481.6,209.7 		"/>
		<g>
			<path class="st1" d="M477.7,202.5l3.1,6.7h-6.1L477.7,202.5 M477.7,200l-4.5,10.2h9.2L477.7,200L477.7,200z"/>
		</g>
	</g>
	<rect x="477" y="239.2" class="st1" width="1" height="5"/>
</g>
<g>
	<g>
		<g>
			<path class="st1" d="M428.3,214.4l3.5,6.8h-6.4L428.3,214.4 M428.2,212.1l-4.4,10.2h9.5L428.2,212.1L428.2,212.1z"/>
		</g>
	</g>
	<g>
		<g>
			<path class="st1" d="M430.8,222.2l3.1,6h-11.3l3.4-6H430.8 M431.4,221.2h-6l-4.5,8h14.6L431.4,221.2L431.4,221.2z"/>
		</g>
	</g>
	<g>
		<g>
			<path class="st1" d="M431.8,229.2l3.8,7h-14.8l3.5-7H431.8 M432.4,228.2h-8.7l-4.5,9h18.1L432.4,228.2L432.4,228.2z"/>
		</g>
	</g>
	<rect x="428" y="237.2" class="st1" width="1" height="5"/>
</g>
<g>
	<g>
		<g>
			<path class="st1" d="M108.3,324.4l3.5,6.8h-6.4L108.3,324.4 M108.2,322.1l-4.4,10.2h9.5L108.2,322.1L108.2,322.1z"/>
		</g>
	</g>
	<g>
		<g>
			<path class="st1" d="M110.8,332.2l3.1,6h-11.3l3.4-6H110.8 M111.4,331.2h-6l-4.5,8h14.6L111.4,331.2L111.4,331.2z"/>
		</g>
	</g>
	<g>
		<g>
			<path class="st1" d="M111.8,339.2l3.8,7h-14.8l3.5-7H111.8 M112.4,338.2h-8.7l-4.5,9h18.1L112.4,338.2L112.4,338.2z"/>
		</g>
	</g>
	<rect x="108" y="347.2" class="st1" width="1" height="5"/>
</g>
<g>
	<g>
		<polygon class="st0" points="47.2,321.7 52.5,309.4 58.8,321.7 		"/>
		<g>
			<path class="st1" d="M52.5,310.6l5.4,10.6H48L52.5,310.6 M52.5,308.2l-6,14h13.1L52.5,308.2L52.5,308.2z"/>
		</g>
	</g>
	<g>
		<polygon class="st0" points="43.3,332.7 49,322.7 56.7,322.7 61.8,332.7 		"/>
		<g>
			<path class="st1" d="M56.4,323.2l4.6,9H44.2l5.1-9H56.4 M57,322.2h-8.2l-6.2,11h20.1L57,322.2L57,322.2z"/>
		</g>
	</g>
	<g>
		<polygon class="st0" points="41.3,344.7 46.8,333.7 57.8,333.7 63.8,344.7 		"/>
		<g>
			<path class="st1" d="M57.5,334.2l5.4,10H42.1l5-10H57.5 M58.1,333.2H46.5l-6,12h24.1L58.1,333.2L58.1,333.2z"/>
		</g>
	</g>
	<rect x="52" y="344.2" class="st1" width="1" height="7"/>
</g>
<g>
	<g>
		<g>
			<path class="st2" d="M733.2,335.4h-18l-0.1-0.1c-0.1-0.1-2.9-2.2-2.1-5c0.7-3,3.7-3.5,5.3-3.6c-0.1-0.5-0.2-1.4,0.3-2.3
				c0.5-1.1,1.7-1.9,3.4-2.4c1.8-0.5,3.2-0.4,4.1,0.3c0.7,0.5,0.9,1.2,1,1.6c1-0.3,3.5-1,4.7,0.2c1.3,1.3,2,2,2.1,2.8
				c0.1,0.1,0.5,0.1,0.8,0.2c1.5,0.3,4.5,0.9,4.2,4.3C738.5,335.3,733.3,335.4,733.2,335.4z M715.5,334.7h17.8c0.2,0,4.6,0,4.9-3.4
				c0.2-2.6-1.7-3.2-3.7-3.6c-0.8-0.2-1.3-0.3-1.3-0.7c0-0.5-0.7-1.2-1.9-2.4c-1-1-3.5-0.3-4.3,0.1l-0.5,0.2v-0.5c0,0,0-1-0.8-1.5
				c-0.7-0.5-1.9-0.6-3.5-0.1c-1.5,0.4-2.5,1.1-3,2.1c-0.5,1.1-0.1,2.2-0.1,2.2l0.2,0.5h-0.5c-1.3,0-4.3,0.3-5,3.1
				C713.1,332.6,715,334.4,715.5,334.7z"/>
			<path class="st1" d="M724,321.7c-0.6,0-1.3,0.1-2.1,0.3c-1.7,0.5-2.9,1.3-3.4,2.4c-0.4,0.9-0.4,1.8-0.3,2.3
				c-1.6,0.1-4.5,0.6-5.3,3.6c-0.7,2.9,2,5,2.1,5l0.1,0.1h18c0.1,0,5.2,0,5.5-4c0.3-3.4-2.8-4-4.2-4.3c-0.3-0.1-0.6-0.1-0.8-0.2
				c-0.1-0.8-0.8-1.5-2.1-2.8c-0.5-0.5-1.3-0.7-2.1-0.7c-1,0-2,0.3-2.6,0.5c-0.1-0.4-0.3-1.1-1-1.6
				C725.5,321.8,724.8,321.7,724,321.7L724,321.7z M715.5,334.7c-0.4-0.4-2.3-2.1-1.8-4.3c0.7-2.8,3.8-3.1,5-3.1h0.5l-0.2-0.5
				c0,0-0.4-1.1,0.1-2.2c0.5-0.9,1.5-1.6,3-2.1c0.7-0.2,1.3-0.3,1.9-0.3c0.7,0,1.2,0.1,1.6,0.4c0.8,0.6,0.8,1.5,0.8,1.5v0.5l0.5-0.2
				c0.5-0.2,1.7-0.6,2.8-0.6c0.6,0,1.2,0.1,1.6,0.5c1.2,1.2,1.9,1.9,1.9,2.4s0.5,0.6,1.3,0.7c2,0.4,3.9,1,3.7,3.6
				c-0.3,3.3-4.7,3.4-4.9,3.4h-17.8V334.7z"/>
		</g>
		<path class="st1" d="M722.4,335.4c-0.1,0-0.2,0-0.2-0.1c-0.1-0.1-0.9-0.8-1.6-1.8c-1.5-1.2-3.3-2.2-3.4-2.2l0.3-0.6
			c0.1,0,1.2,0.6,2.3,1.4c-0.2-0.6-0.3-1.3-0.1-1.9l0.6,0.2c-0.3,0.8,0.2,1.7,0.7,2.6c0.7,0.6,1.3,1.2,1.6,1.8
			c0.1,0.1,0,0.3-0.1,0.4C722.5,335.4,722.5,335.4,722.4,335.4z"/>
		<path class="st1" d="M725.4,334.7L725.4,334.7c-0.2,0-0.3-0.1-0.3-0.3c0-0.1-0.2-1.6,0.1-3.2c-0.2-2.5-0.8-5.5-0.8-5.5l0.7-0.1
			c0,0.1,0.4,2,0.6,4c0.4-1,1.1-1.8,2.3-2.2l0.2,0.6c-1.4,0.6-2.1,2-2.3,3.3c0.1,1.3,0.1,2.5-0.1,3.2
			C725.7,334.6,725.5,334.7,725.4,334.7z"/>
		<path class="st1" d="M730.1,334.7C730.1,334.7,730,334.7,730.1,334.7c-0.2-0.1-0.3-0.2-0.3-0.4c0-0.5,0.2-1.9,0.8-2.5
			c0.4-1.6,0.7-3.3,0.7-3.3l0.7,0.1c0,0.1-0.3,1.5-0.6,2.9c0.2,0,0.3,0.1,0.5,0.3l-0.4,0.5c-0.1-0.1-0.2-0.1-0.2-0.1
			c-0.2,0.9-0.5,1.8-0.7,2.3C730.3,334.6,730.2,334.7,730.1,334.7z"/>
	</g>
	<g>
		<g>
			<path class="st2" d="M750.2,335.4h-16.7v-0.7c4.3,0,4.6-3.2,4.7-3.4c0.3-3.3-4.7-4-4.7-4h-0.2l-0.3-0.9c0-0.1-0.5-2.3,2.4-3.7
				c2.2-1.1,3.6-0.5,4.1-0.2c0.9-0.9,4.6-4.3,8.3-1.8c3.6,2.4,3.6,5.3,3.5,6.1c0.7,0.4,2.7,1.8,2.7,4.2
				C754,333.9,750.4,335.3,750.2,335.4L750.2,335.4z M736.5,334.7H750c0.4-0.2,3.3-1.5,3.3-3.7c0-2.4-2.5-3.7-2.5-3.7l-0.2-0.1v-0.3
				c0-0.1,0.6-3.2-3.2-5.7c-3.7-2.5-7.5,1.8-7.6,2l-0.2,0.3l-0.3-0.3c0,0-1.2-1.1-3.6,0.1c-2.4,1.2-2.1,2.9-2.1,2.9l0.2,0.5
				c2,0.3,5.3,1.6,5.1,4.7C738.8,331.4,738.6,333.6,736.5,334.7z"/>
			<path class="st1" d="M744.9,319.8c-2.6,0-4.8,2-5.5,2.7c-0.3-0.2-0.9-0.5-1.7-0.5c-0.6,0-1.4,0.2-2.4,0.6
				c-2.9,1.4-2.5,3.6-2.4,3.7l0.3,0.9h0.2c0,0,5,0.7,4.7,4c0,0.1-0.3,3.4-4.7,3.4v0.7h16.7h0.1c0.2-0.1,3.8-1.5,3.8-4.4
				c0-2.4-2-3.8-2.7-4.2c0.1-0.9,0-3.8-3.5-6.1C746.8,320,745.8,319.8,744.9,319.8L744.9,319.8z M739.5,323.5l0.2-0.3
				c0.1-0.1,2.4-2.7,5.1-2.7c0.8,0,1.6,0.2,2.5,0.8c3.8,2.5,3.2,5.6,3.2,5.7v0.3l0.2,0.1c0,0,2.5,1.3,2.5,3.7c0,2.2-2.8,3.5-3.3,3.7
				h-13.6c2.1-1.1,2.3-3.3,2.3-3.3c0.2-3.1-3.1-4.4-5.1-4.7l-0.2-0.5c0-0.1-0.3-1.7,2.1-2.9c0.8-0.4,1.5-0.6,2.1-0.6
				c1,0,1.5,0.5,1.5,0.5L739.5,323.5L739.5,323.5z"/>
		</g>
		<path class="st1" d="M742.5,334.5l-0.7-0.1c0,0,0-0.2,0.1-0.4c0.4-2.3-1.3-4-1.3-4l0.5-0.5c0.1,0.1,1.2,1.2,1.5,2.9
			c0.2-0.4,0.5-0.9,0.9-1.3l-0.6,0.2c0-0.1-1-3.6,1.1-5.7l0.5,0.5c-1.2,1.2-1.2,3-1.1,4.1c1.1-1.1,4-2.2,5.5-2.7l0.2,0.6l0,0
			c-4.9,1.6-6.1,5-6.4,6.1C742.6,334.2,742.5,334.3,742.5,334.5z M744,330.3c-0.3,0.2-0.4,0.4-0.5,0.5
			C743.7,330.7,743.8,330.5,744,330.3z"/>
	</g>
</g>
<g>
	<g>
		<g>
			<path class="st0" d="M562.2,331.8c-0.6,0-1-0.1-1-0.1h-26.6c-0.6-0.5-3.5-3.1-2.7-6.4c1-4.2,5.6-4.6,7.5-4.6h0.7l-0.3-0.7
				c0,0-0.6-1.6,0.2-3.2c0.7-1.4,2.2-2.4,4.5-3.1c1.1-0.3,2-0.5,2.8-0.5c3.4,0,3.5,2.7,3.6,3v0.7l0.7-0.3c0,0,2.2-0.9,4.1-0.9
				c1.1,0,1.9,0.2,2.4,0.7c1.8,1.8,2.9,2.9,2.9,3.6s0.8,0.8,1.9,1.1c2.9,0.6,5.8,1.5,5.5,5.4C568.1,331.1,564.4,331.8,562.2,331.8z"
				/>
			<path class="st1" d="M547.4,313.7c2.9,0,3,2.1,3.1,2.5v1.5l1.4-0.5c0,0,2.1-0.8,3.9-0.8c0.9,0,1.6,0.2,2,0.6
				c1.6,1.6,2.7,2.7,2.7,3.3c0,1.1,1.1,1.3,2.3,1.6c2.8,0.6,5.4,1.4,5.1,4.9c-0.3,3.8-3.3,4.6-5.7,4.6c-0.5,0-0.9,0-0.9,0h-0.1h-0.1
				h-26.3c-0.8-0.7-3.1-3-2.4-5.8c1-3.8,5.2-4.2,7-4.2h1.4l-0.5-1.4c0,0-0.5-1.4,0.2-2.9c0.6-1.3,2-2.2,4.2-2.8
				C545.8,313.9,546.7,313.7,547.4,313.7 M547.4,312.7c-0.8,0-1.8,0.1-2.9,0.5c-7,2-5,7-5,7c-3,0-7,1-8,5s3,7,3,7h26.7
				c0,0,0.4,0.1,1,0.1c2,0,6.4-0.6,6.7-5.6c0.4-6.5-7.4-5.5-7.4-6.5s-1-2-3-4c-0.7-0.7-1.7-0.9-2.7-0.9c-2.1,0-4.3,0.9-4.3,0.9
				S551.5,312.7,547.4,312.7L547.4,312.7z"/>
		</g>
		<path class="st1" d="M546.6,334.3l-1.9-1.7c-0.1-0.1-1.3-1.2-2.4-2.7c-2.2-1.8-5-3.2-5-3.2l0.4-0.9c0.1,0.1,1.7,0.9,3.5,2.1
			c-0.3-0.9-0.5-1.9-0.2-2.8l0.9,0.3c-0.4,1.2,0.2,2.6,1.1,3.9c1,0.9,1.9,1.8,2.4,2.8L546.6,334.3z"/>
		<path class="st1" d="M549.2,333.5l-0.3-2.2c0-0.2-0.3-2.4,0.2-4.8c-0.3-3.8-1.2-8.1-1.2-8.2l1-0.2c0,0.2,0.6,3,1,6
			c0.7-1.4,1.7-2.7,3.4-3.3l0.4,0.9c-2.1,0.9-3.1,3-3.5,5c0.1,1.9,0.1,3.7-0.2,4.7L549.2,333.5z"/>
		<path class="st1" d="M555.7,333.9l0.2-2.7c0.1-0.7,0.3-2.8,1.2-3.8c0.6-2.4,1.1-4.9,1.1-5l1,0.2c0,0.2-0.4,2.2-0.9,4.4
			c0.2,0,0.5,0.2,0.8,0.4l-0.6,0.8c-0.1-0.1-0.3-0.2-0.4-0.2c-0.4,1.4-0.8,2.8-1.1,3.5L555.7,333.9z"/>
	</g>
	<g>
		<g>
			<path class="st0" d="M566.2,331.7c2.1-1.6,3.1-4.7,3.2-4.8v-0.1v-0.1c0.4-4.6-4.6-6.5-7.6-7l-0.3-0.8c0,0-0.5-2.5,3.1-4.3
				c1.1-0.6,2.2-0.8,3.1-0.8c1.5,0,2.3,0.7,2.3,0.7l0.4,0.4l0.3-0.4c0,0,3.5-4.1,7.7-4.1c1.3,0,2.5,0.4,3.7,1.2
				c5.6,3.8,4.8,8.3,4.8,8.5l-0.1,0.4l0.3,0.2c0,0,3.7,1.9,3.8,5.5c0.1,3.3-4.2,5.2-4.9,5.5L566.2,331.7L566.2,331.7z"/>
			<path class="st1" d="M578.5,311c1.2,0,2.3,0.4,3.4,1.1c5.3,3.5,4.6,7.8,4.6,8l-0.1,0.7l0.7,0.3c0,0,3.5,1.8,3.5,5.1
				c0.1,2.9-3.7,4.7-4.5,5h-18.6c1.6-1.7,2.4-4,2.4-4.2v-0.1v-0.1c0.4-4.8-4.5-6.9-7.7-7.5l-0.1-0.4c0-0.3-0.1-2.3,2.8-3.8
				c1-0.5,2-0.8,2.9-0.8c1.3,0,1.9,0.6,2,0.6l0.8,0.8l0.7-0.8C571.3,314.8,574.6,311,578.5,311 M578.5,310c-4.4,0-8.1,4.2-8.1,4.2
				s-0.9-0.9-2.7-0.9c-0.9,0-2,0.2-3.3,0.9c-4,2-3.4,4.9-3.4,4.9l0.4,1.1c0,0,7.9,1,7.4,6.5c0,0-1.8,5.4-5.3,5.5h22.7
				c0,0,5.4-2.1,5.3-6s-4.1-6-4.1-6s1-5-5-9C581.1,310.3,579.8,310,578.5,310L578.5,310z M563.6,332.2L563.6,332.2
				C563.5,332.2,563.5,332.2,563.6,332.2C563.5,332.2,563.6,332.2,563.6,332.2L563.6,332.2z"/>
		</g>
		<path class="st1" d="M575,331.3l-1-0.2c0,0,0-0.2,0.1-0.5c0.6-3.4-1.9-6-2-6l0.7-0.7c0.1,0.1,1.7,1.8,2.2,4.3
			c0.3-0.6,0.7-1.3,1.3-2l-0.8,0.2c-0.1-0.2-1.5-5.3,1.6-8.5l0.7,0.7c-1.8,1.8-1.8,4.5-1.6,6.1c1.7-1.7,6-3.2,8.1-4l0.3,0.9l0,0
			c-7.3,2.4-9.1,7.5-9.5,9.1C575,331,575,331.1,575,331.3z M577.1,325.1c-0.4,0.3-0.6,0.6-0.7,0.8
			C576.7,325.7,576.9,325.4,577.1,325.1z"/>
	</g>
</g>
<g>
	<g>
		<rect x="406.5" y="278.5" class="st2" width="38" height="3"/>
		<g>
			<path class="st1" d="M444,279v2h-37v-2H444 M445,278h-39v4h39V278L445,278z"/>
		</g>
	</g>
	<g>
		<rect x="406.5" y="285.5" class="st2" width="38" height="3"/>
		<g>
			<path class="st1" d="M444,286v2h-37v-2H444 M445,285h-39v4h39V285L445,285z"/>
		</g>
	</g>
	<rect x="402" y="291" class="st1" width="47" height="5"/>
	<rect x="407" y="296" class="st1" width="2" height="7"/>
	<rect x="442" y="296" class="st1" width="2" height="5"/>
	<rect x="412" y="282" class="st1" width="1" height="3"/>
	<rect x="412" y="288" class="st1" width="1" height="3"/>
	<rect x="438" y="282" class="st1" width="1" height="3"/>
	<rect x="438" y="288" class="st1" width="1" height="3"/>
	<polygon class="st1" points="460,301 455,301 454,292 461,292 	"/>
</g>
<g>
	<path class="st1" d="M318.6,256.3l-0.3,1.1c1.2-0.3,2.4-0.5,3.6-0.8l-0.3-1C320.6,255.8,319.6,256,318.6,256.3z"/>
	<path class="st1" d="M307,258.9c-18.5,4.4-34.2,9-46.1,12.9v1c12-3.9,27.9-8.6,46.7-13L307,258.9z"/>
	<path class="st1" d="M723.6,296c-72.2-8.5-124.2-27-124.7-27.2c-39.5-15.2-83.1-24-129.7-26.2c-37.3-1.8-76.6,0.7-116.7,7.2
		c-6.1,1-12.1,2.1-17.9,3.2l-0.1,1c5.9-1.1,11.9-2.2,18.1-3.2c63-10.3,156.8-15.4,245.9,18.9c0.5,0.2,52.6,18.7,124.9,27.3
		c24.3,2.9,48,4.3,71.2,4.3c17.4,0,34.4-0.8,50.9-2.4c15.9-1.6,31.4-3.9,46.4-7v-1.1C829.9,303.4,769.4,301.4,723.6,296z"/>
</g>
<g>
	<polygon class="st1" points="638.3,228.8 645.1,203.2 645.9,221.3 	"/>
	<polygon class="st1" points="640.8,235.8 663.7,249.2 646.1,245.1 	"/>
	<polygon class="st1" points="633.6,231.9 607.2,234.9 623.8,227.7 	"/>
	<circle class="st5" cx="637.6" cy="232.8" r="4.1"/>
	<polygon class="st1" points="633.5,279.7 639.5,280.7 638.3,236.9 636.7,236.9 	"/>
</g>
<g>
	<polygon class="st1" points="837.4,266.8 826.2,254.2 836,260.1 	"/>
	<polygon class="st1" points="841.5,269.7 856.6,262.3 848.3,270.2 	"/>
	<polygon class="st1" points="837.5,271.5 827.4,285 831.3,274.1 	"/>
	<circle class="st5" cx="838.7" cy="269.2" r="2.6"/>
	<g>
		<polygon class="st1" points="837,299.2 840,299.2 840,272.2 838.2,272 		"/>
	</g>
</g>
<g>
	<polygon class="st1" points="1320.1,257.6 1311,247.4 1319,252.2 	"/>
	<polygon class="st1" points="1323.5,260 1335.8,254 1329,260.4 	"/>
	<polygon class="st1" points="1320.2,261.4 1312,272.4 1315.1,263.6 	"/>
	<circle class="st5" cx="1321.2" cy="259.6" r="2.1"/>
	<g>
		<polygon class="st1" points="1319.8,284.1 1322.2,284.1 1322.2,262 1320.8,261.9 		"/>
	</g>
</g>
<g>
	<polygon class="st1" points="1631.1,216.6 1622,206.4 1630,211.2 	"/>
	<polygon class="st1" points="1634.5,219 1646.8,213 1640,219.4 	"/>
	<polygon class="st1" points="1631.2,220.4 1623,231.4 1626.1,222.6 	"/>
	<circle class="st5" cx="1632.2" cy="218.6" r="2.1"/>
	<g>
		<polygon class="st1" points="1630.8,243.1 1633.2,243.1 1633.2,221 1631.8,220.9 		"/>
	</g>
</g>
<g>
	<path class="st1" d="M257,321h-18.8l9.8-12c0.2-0.2,0.1-0.5-0.1-0.7c-0.2-0.2-0.5-0.1-0.7,0.1L236.9,321h-12.2l9.7-11.9
		c0.2-0.2,0.1-0.5-0.1-0.7c-0.2-0.2-0.5-0.1-0.7,0.1L223.4,321h-10.9l13.4-17h87l13.3,17h-11l-9.9-12.3c-0.2-0.2-0.5-0.2-0.7-0.1
		c-0.2,0.2-0.2,0.5-0.1,0.7L314,321h-12l-10.7-12.3c-0.2-0.2-0.5-0.2-0.7-0.1c-0.2,0.2-0.2,0.5-0.1,0.7l10.1,11.7H282v1h46.3
		l-14.9-19h-87.9l-15,19H257V321z"/>
	<g>
		<path class="st0" d="M280.5,355.5V325c0-6.3-5.2-11.5-11.5-11.5c-0.6,0-1.3,0.1-1.9,0.1c-5.5,0.9-9.6,5.9-9.6,11.7v30.2h-44v-33
			h39.3L269,299l16.2,23.5h39.3v33H280.5z M303.5,350.5h15v-23h-15V350.5z M284.5,350.5h15v-23h-15V350.5z M237.5,350.5h15v-23h-15
			V350.5z M218.5,350.5h15v-23h-15V350.5z"/>
		<path class="st1" d="M269,299.9l15.7,22.6l0.3,0.4h0.5H324v32h-43v-30c0-6.6-5.4-12-12-12c-0.7,0-1.3,0.1-2,0.2
			c-5.7,0.9-10,6.1-10,12.2V355h-43v-32h38.5h0.5l0.3-0.4L269,299.9 M303,351h1h14h1v-1v-22v-1h-1h-14h-1v1v22V351 M284,351h1h14h1
			v-1v-22v-1h-1h-14h-1v1v22V351 M237,351h1h14h1v-1v-22v-1h-1h-14h-1v1v22V351 M218,351h1h14h1v-1v-22v-1h-1h-14h-1v1v22V351
			 M269,298.1L252.5,322H213v34h45v-30.7c0-5.4,3.8-10.3,9.2-11.2c0.6-0.1,1.2-0.1,1.8-0.1c6.1,0,11,4.9,11,11v31h45v-34h-39.5
			L269,298.1L269,298.1z M304,350v-22h14v22H304L304,350z M285,350v-22h14v22H285L285,350z M238,350v-22h14v22H238L238,350z
			 M219,350v-22h14v22H219L219,350z"/>
	</g>
</g>
<path class="st1" d="M638.5,370h-57.8c-1.9,0-3.7-1.3-4.1-3.2c-0.5-2.6,1.4-4.8,3.9-4.8h6.9c1.3,0,2.5-0.8,2.9-2
	c0.7-2.1-0.9-4-2.8-4H556c-1.5,0-2.9,0.9-3.4,2.4c-0.8,2.4,1,4.6,3.3,4.6h13.8c1.5,0,2.9,0.9,3.4,2.4c0.8,2.4-1,4.6-3.3,4.6h-83.4
	c-1.3,0-2.4-1.1-2.4-2.4v-0.2c0-1.3,1.1-2.4,2.4-2.4h6.4c0.8,0,1.5-0.7,1.5-1.5s-0.7-1.5-1.5-1.5H0v-1h492.7c1.2,0,2.3,0.7,2.5,1.9
	c0.4,1.6-0.8,3.1-2.4,3.1h-6.4c-0.8,0-1.4,0.6-1.4,1.4v0.7c0,0.5,0.4,0.8,0.8,0.8h84.5c0.5,0,0.9-0.2,1.2-0.6
	c1.7-2.1,0.2-4.4-1.8-4.4H556c-2.2,0-4.1-1.4-4.6-3.6c-0.6-2.9,1.6-5.4,4.4-5.4h31.3c1.9,0,3.7,1.3,4.1,3.2c0.5,2.6-1.4,4.8-3.9,4.8
	h-6.9c-1.3,0-2.5,0.8-2.9,2c-0.7,2.1,0.9,4,2.8,4h57.9c1.3,0,2.5-0.8,2.9-2c0.7-2.1-0.9-4-2.8-4h-15.8c-1.9,0-3.7-1.3-4.1-3.2
	c-0.5-2.6,1.4-4.8,3.9-4.8h138.3c2.2,0,4.1,1.4,4.6,3.6c0.6,2.9-1.6,5.4-4.4,5.4h-9.4c-0.9,0-1.7,0.5-2,1.3
	c-0.4,1.4,0.6,2.7,1.9,2.7H792v1h-40.4c-1.3,0-2.5-0.8-2.9-2c-0.7-2.1,0.9-4,2.8-4h9.4c1.5,0,2.9-0.9,3.4-2.4c0.8-2.4-1-4.6-3.3-4.6
	H622.6c-1.3,0-2.5,0.8-2.9,2c-0.7,2.1,0.9,4,2.8,4h15.8c1.9,0,3.7,1.3,4.1,3.2C642.9,367.7,640.9,370,638.5,370z"/>
<g>
	<g>
		<path class="st1" d="M697.3,174.5c2.7,2.2,4.6,7.1,4.6,12.7c0,7.6-3.5,13.8-7.9,14c0.1,0,0.2,0,0.4,0c2.3,0,4.4-0.6,6.2-1.5
			l-2.5,6.5h-7.4l-3.4-7c1.7,1.1,3.7,1.8,5.8,2c-4-0.7-7.2-6.7-7.2-13.9c0-5.3,1.7-9.9,4.2-12.3c-5.3,1.8-9.2,6.8-9.2,12.8
			c0,4.1,1.8,7.7,4.7,10.2l4.5,9.3h8.7l3.3-8.4c3.5-2.4,5.9-6.5,5.9-11.1C708,181.2,703.4,175.8,697.3,174.5z"/>
		<path class="st1" d="M693.2,201.1c0.2,0,0.3,0,0.5,0C693.5,201.2,693.3,201.2,693.2,201.1z"/>
	</g>
	<g>
		<path class="st1" d="M694,173.7c-3.8,0-7,6-7,13.5s3.1,13.5,7,13.5V173.7z"/>
		<path class="st1" d="M695,173.8v26.7c3.4-0.9,6-6.5,6-13.4C701,180.4,698.4,174.7,695,173.8z"/>
	</g>
	<rect x="690.5" y="207.7" class="st6" width="8" height="6"/>
</g>
<g>
	<g>
		<path class="st1" d="M1235.1,198.1c1.5,1.2,2.6,3.9,2.6,7c0,4.2-1.9,7.7-4.3,7.7c0.1,0,0.1,0,0.2,0c1.2,0,2.4-0.3,3.5-0.8
			l-1.4,3.6h-4.1l-1.9-3.9c0.9,0.6,2,1,3.2,1.1c-2.2-0.4-4-3.7-4-7.7c0-2.9,0.9-5.5,2.3-6.8c-2.9,1-5.1,3.8-5.1,7.1
			c0,2.3,1,4.3,2.6,5.6l2.5,5.1h4.8l1.8-4.6c2-1.3,3.2-3.6,3.2-6.2C1240.9,201.8,1238.4,198.8,1235.1,198.1z"/>
		<path class="st1" d="M1232.8,212.8c0.1,0,0.2,0,0.2,0C1232.9,212.8,1232.8,212.8,1232.8,212.8z"/>
	</g>
	<g>
		<path class="st1" d="M1233.2,197.6c-2.1,0-3.9,3.3-3.9,7.5c0,4.1,1.7,7.5,3.9,7.5V197.6z"/>
		<path class="st1" d="M1233.7,197.7v14.8c1.9-0.5,3.3-3.6,3.3-7.4C1237.1,201.3,1235.6,198.2,1233.7,197.7z"/>
	</g>
	<g>
		<rect x="1231.8" y="217" class="st4" width="3.4" height="2.3"/>
		<path class="st1" d="M1234.7,217.5v1.3h-2.4v-1.3H1234.7 M1235.7,216.5h-4.4v3.3h4.4V216.5L1235.7,216.5z"/>
	</g>
</g>
<path class="st1" d="M522.4,310.1c-6-1.1-12.1-2.2-18.2-3.1c-56.3-8.7-112.5-7.5-158.9,3.3l-0.2,1.1c46.3-10.8,102.6-12.1,158.9-3.4
	c6.1,0.9,12.2,2,18.2,3.2L522.4,310.1z"/>
<g>
	<path class="st1" d="M941.7,204c3.2,2.7,9.2,3.2,13.2-0.9c4-4.1,3.4-10.1,0.6-13.2c-0.1,0.3-0.2,0.7-0.4,1
		c-0.7,1.2-1.4,2.5-2.3,3.6c-2.3,3.1-5.1,5.8-8.3,7.9C943.8,203,942.7,203.5,941.7,204z"/>
	<g>
		<path class="st2" d="M964.8,213c-1.3,0-2.7,0-4,0c-0.2,0-0.4,0-0.6,0c0-0.4,0-0.7,0-1c0-0.9-0.7-1.5-1.6-1.6c-0.7,0-1.3,0-2,0
			c-0.3,0-0.4-0.1-0.4-0.4c-0.2-2.1-0.5-4.2-0.7-6.2c0-0.2,0.1-0.5,0.2-0.7c3.6-4.1,3.5-10.1-0.1-14.2c-0.6-0.6-1.2-0.8-1.9-0.6
			c-0.8,0.3-1.6,0.6-2.3,1.1c-1.1,0.7-2.2,1.6-3.2,2.3c-0.2,0.1-0.4,0.3-0.1,0.5c0.1,0.1,0.4,0,0.5-0.1c1.2-0.8,2.3-1.7,3.5-2.5
			c0.6-0.4,1.3-0.6,2-0.8c0.8-0.2,1.1,0.1,0.9,1c-0.3,1.1-0.9,2.1-1.5,3c-2.6,3.7-5.8,6.9-9.6,9.3c-0.7,0.5-1.5,0.8-2.3,1
			c-0.7,0.3-1.1-0.1-0.9-0.8c0.2-0.8,0.6-1.6,1-2.3c0.7-1.1,1.5-2.1,2.2-3.1c0.1-0.1,0.2-0.2,0.2-0.3s0-0.3-0.1-0.3
			c-0.1-0.1-0.2,0-0.3,0s-0.1,0.1-0.2,0.1c-1.2,1.4-2.3,2.9-3.1,4.6c-0.8,1.7-0.6,2.2,0.8,3.4c1.9,1.5,4,2.2,6.4,2.3
			c0.2,0,0.4,0,0.6,0c0,0.5-0.1,1-0.1,1.4c-0.1,0.6-0.1,1.3-0.2,1.9c0,0.3-0.1,0.4-0.4,0.4c-0.6,0-1.3,0-1.9,0c-1,0-1.7,0.7-1.7,1.7
			c0,0.3,0,0.6,0,0.9c-0.2,0-0.3,0-0.5,0c-1.3,0-2.7,0-4,0c-0.1,0-0.3,0-0.4,0c-0.1,0.1-0.2,0.2-0.2,0.3s0.1,0.2,0.2,0.3
			c0.1,0.1,0.3,0,0.4,0c8.3,0,16.7,0,25,0c0.1,0,0.1,0,0.2,0c0.2,0,0.5,0,0.5-0.3C965.3,213,965,213,964.8,213z M955.7,210.4
			c-2.4,0-4.7,0-7,0c0-0.1,0-0.2,0-0.2c0.1-1.1,0.2-2.1,0.3-3.2c0-0.1,0.2-0.3,0.4-0.3c2-0.3,3.7-1.1,5.3-2.3
			c0.1-0.1,0.2-0.2,0.4-0.3C955.2,206.2,955.4,208.3,955.7,210.4z M941.7,204c1-0.5,2-1,2.9-1.6c3.2-2.1,6-4.8,8.3-7.9
			c0.9-1.1,1.5-2.4,2.3-3.6c0.2-0.3,0.2-0.6,0.4-1c2.7,3.1,3.4,9.1-0.6,13.2C951,207.2,944.9,206.8,941.7,204z M959.1,213
			c-2.3,0-4.6,0-6.9,0l0,0c-0.2,0-0.4,0-0.6,0l0,0c-2.1,0-4.3,0-6.4,0c-0.1,0-0.3,0-0.4-0.1c0,0-0.1,0-0.1-0.1
			c-0.4-0.9,0.2-1.8,1.2-1.8s2,0,3,0s2,0,3,0l0,0l0,0c2.2,0,4.4,0,6.6,0c0.1,0,0.3,0,0.4,0c0.2,0.1,0.4,0.2,0.5,0.3s0.1,0.2,0.1,0.3
			s0.1,0.3,0.1,0.4c0,0.1,0,0.3,0,0.4C959.6,212.9,959.5,213,959.1,213z"/>
		<path class="st1" d="M954.4,188.3c-0.2,0-0.4,0-0.6,0.1c-0.8,0.3-1.6,0.6-2.3,1.1c-1.1,0.7-2.2,1.6-3.2,2.3
			c-0.2,0.1-0.4,0.3-0.1,0.5h0.1c0.1,0,0.3-0.1,0.4-0.1c1.2-0.8,2.3-1.7,3.5-2.5c0.6-0.4,1.3-0.6,2-0.8c0.2,0,0.3-0.1,0.4-0.1
			c0.5,0,0.7,0.4,0.5,1c-0.3,1.1-0.9,2.1-1.5,3c-2.6,3.7-5.8,6.9-9.6,9.3c-0.7,0.5-1.5,0.8-2.3,1c-0.2,0.1-0.3,0.1-0.4,0.1
			c-0.4,0-0.6-0.3-0.5-0.9c0.2-0.8,0.6-1.6,1-2.3c0.7-1.1,1.5-2.1,2.2-3.1c0.1-0.1,0.2-0.2,0.2-0.3s0-0.3-0.1-0.3H944
			c-0.1,0-0.1,0-0.2,0c-0.1,0-0.1,0.1-0.2,0.1c-1.2,1.4-2.3,2.9-3.1,4.6c-0.8,1.7-0.6,2.2,0.8,3.4c1.9,1.5,4,2.2,6.4,2.3
			c0.1,0,0.1,0,0.2,0c0.1,0,0.3,0,0.4,0c0,0.5-0.1,1-0.1,1.4c-0.1,0.6-0.1,1.3-0.2,1.9c0,0.3-0.1,0.4-0.4,0.4l0,0
			c-0.3,0-0.6,0-0.9,0c-0.3,0-0.7,0-1,0c-1,0-1.7,0.7-1.7,1.7c0,0.3,0,0.6,0,0.9c-0.2,0-0.3,0-0.5,0c-1.3,0-2.7,0-4,0l0,0
			c-0.1,0-0.1,0-0.2,0c-0.1,0-0.1,0-0.2,0c-0.1,0.1-0.2,0.2-0.2,0.3s0.1,0.2,0.2,0.3c0.1,0,0.1,0,0.2,0c0.1,0,0.2,0,0.2,0
			c6.1,0,12.3,0,18.4,0c2.2,0,4.4,0,6.6,0h0.1c0,0,0,0,0.1,0h0.1c0.2,0,0.4,0,0.4-0.3s-0.2-0.3-0.4-0.3h-0.1l0,0c-1.3,0-2.7,0-4,0
			c-0.1,0-0.1,0-0.2,0c-0.1,0-0.3,0-0.4,0c0-0.4,0-0.7,0-1c0-0.9-0.7-1.5-1.6-1.6c-0.3,0-0.6,0-1,0c-0.3,0-0.7,0-1,0l0,0
			c-0.2,0-0.3-0.1-0.4-0.4c-0.2-2.1-0.5-4.2-0.7-6.2c0-0.2,0.1-0.5,0.2-0.7c3.6-4.1,3.5-10.1-0.1-14.2
			C955.3,188.5,954.9,188.3,954.4,188.3L954.4,188.3z M947.8,206.1c-2.3,0-4.5-0.8-6.1-2.1c1-0.5,2-1,2.9-1.6c3.2-2.1,6-4.8,8.3-7.9
			c0.9-1.1,1.5-2.4,2.3-3.6c0.2-0.3,0.2-0.6,0.4-1c2.7,3.1,3.4,9.1-0.6,13.2C952.9,205.2,950.3,206.1,947.8,206.1L947.8,206.1z
			 M948.6,210.4c0-0.1,0-0.2,0-0.2c0.1-1.1,0.2-2.1,0.3-3.2c0-0.1,0.2-0.3,0.4-0.3c2-0.3,3.7-1.1,5.3-2.3c0.1-0.1,0.2-0.2,0.4-0.3
			c0.2,2.2,0.5,4.3,0.7,6.4C953.3,210.4,951,210.4,948.6,210.4L948.6,210.4z M951.8,211c1.1,0,2.1,0,3.2,0c1.2,0,2.3,0,3.5,0
			c0.1,0,0.3,0,0.4,0c0.2,0.1,0.4,0.2,0.5,0.3s0.1,0.2,0.1,0.3s0.1,0.3,0.1,0.4c0,0.1,0,0.3,0,0.4c0.1,0.4-0.1,0.5-0.5,0.5l0,0
			c-1.1,0-2.3,0-3.4,0c-1.2,0-2.3,0-3.5,0l0,0c-0.1,0-0.3,0-0.4,0c-0.1,0-0.1,0-0.2,0c-1.1,0-2.1,0-3.2,0c-1.1,0-2.2,0-3.3,0
			c-0.1,0-0.3,0-0.4-0.1c0,0-0.1,0-0.1-0.1c-0.4-0.9,0.2-1.8,1.2-1.8c0.5,0,0.9,0,1.4,0s1.1,0,1.6,0c0.1,0,0.1,0,0.2,0
			C949.9,211,950.8,211,951.8,211C951.7,211,951.8,211,951.8,211L951.8,211z"/>
	</g>
	<g>
		<path class="st0" d="M944,192.7c-0.1-0.3-0.3-0.6-0.4-0.9c0.2,0.1,0.3,0.2,0.5,0.2h0.1l0.1,0.3L944,192.7z"/>
		<path class="st1" d="M940.5,187.2c-0.4,0-0.8,0.2-1.1,0.5c-0.5,0.5-0.6,1.4-0.2,2c0.3,0.5,0.8,0.7,1.3,0.7c0.2,0,0.4,0,0.6-0.1
			c0.1,0,0.2-0.1,0.3-0.1s0.2,0.1,0.3,0.2l0,0c1,0.8,1.5,1.8,1.9,2.9c0.7,1.9,1.5,3.7,2.2,5.6c0,0.1,0.1,0.3,0.1,0.3
			c0.1,0.1,0.2,0.1,0.4,0.1l0,0c0.1,0,0.1-0.2,0.1-0.4c0-0.1-0.1-0.2-0.1-0.3c-0.7-1.8-1.4-3.5-2.1-5.3c0-0.1-0.1-0.2-0.1-0.4
			l0.1-0.1c0.2,0.3,0.5,0.6,0.7,0.8c1.1,1.1,2.1,2.2,3.2,3.2c0.1,0.1,0.2,0.3,0.4,0.3c0.1,0,0.1,0,0.2-0.1c0.2-0.2,0-0.4-0.1-0.6
			c-1.2-1.2-2.5-2.5-3.7-3.7c-0.1-0.1-0.2-0.2-0.3-0.4c0.3,0.1,0.7,0.3,1,0.4c1.6,0.6,3.1,1.2,4.7,1.9c0.1,0,0.2,0.1,0.4,0.1l0,0
			c0.1,0,0.3-0.1,0.3-0.2c0-0.1,0-0.3-0.1-0.3c-0.1-0.1-0.3-0.2-0.5-0.2c-2.1-0.8-4.2-1.7-6.3-2.5c-0.6-0.2-1.1-0.5-1.5-1
			c-0.2-0.2-0.4-0.4-0.6-0.6c-0.2-0.2-0.3-0.4-0.2-0.7c0.3-0.7,0-1.5-0.7-1.9C941.1,187.3,940.8,187.2,940.5,187.2L940.5,187.2z
			 M940.5,189.8L940.5,189.8c-0.5,0-1-0.4-1-1c0-0.5,0.4-1,1-1l0,0c0.5,0,1,0.4,1,1C941.5,189.3,941.1,189.8,940.5,189.8
			L940.5,189.8z"/>
	</g>
</g>
<g>
	<path class="st1" d="M227.3,156.3c-3.2,2.7-9.2,3.2-13.2-0.9c-4-4.1-3.4-10.1-0.6-13.2c0.1,0.3,0.2,0.7,0.4,1
		c0.7,1.2,1.4,2.5,2.3,3.6c2.3,3.1,5.1,5.8,8.3,7.9C225.3,155.3,226.4,155.8,227.3,156.3z"/>
	<g>
		<path class="st2" d="M229.9,165.3c-0.1,0-0.2,0-0.4,0c-1.3,0-2.7,0-4,0c-0.2,0-0.3,0-0.5,0c0-0.3,0-0.6,0-0.9c0-1-0.7-1.6-1.7-1.7
			c-0.6,0-1.3,0-1.9,0c-0.3,0-0.4-0.1-0.4-0.4c0-0.6-0.1-1.3-0.2-1.9c0-0.5-0.1-0.9-0.1-1.4c0.2,0,0.4,0,0.6,0
			c2.4,0,4.5-0.8,6.4-2.3c1.5-1.2,1.6-1.7,0.8-3.4s-1.9-3.2-3.1-4.6c0-0.1-0.1-0.1-0.2-0.1c-0.1,0-0.3-0.1-0.3,0
			c-0.1,0.1-0.1,0.2-0.1,0.3s0.2,0.2,0.2,0.3c0.8,1,1.6,2,2.2,3.1c0.4,0.7,0.8,1.5,1,2.3s-0.2,1.1-0.9,0.8c-0.8-0.3-1.6-0.6-2.3-1
			c-3.8-2.4-7-5.6-9.6-9.3c-0.6-0.9-1.2-1.9-1.5-3c-0.2-0.8,0.1-1.2,0.9-1c0.7,0.2,1.4,0.5,2,0.8c1.2,0.8,2.3,1.6,3.5,2.5
			c0.1,0.1,0.4,0.2,0.5,0.1c0.2-0.2,0-0.4-0.1-0.5c-1.1-0.8-2.1-1.6-3.2-2.3c-0.7-0.5-1.5-0.8-2.3-1.1c-0.7-0.3-1.4-0.1-1.9,0.6
			c-3.6,4.1-3.7,10.1-0.1,14.2c0.2,0.2,0.2,0.5,0.2,0.7c-0.2,2.1-0.5,4.2-0.7,6.2c0,0.3-0.1,0.4-0.4,0.4c-0.7,0-1.3,0-2,0
			c-0.9,0-1.5,0.7-1.6,1.6c0,0.3,0,0.6,0,1c-0.2,0-0.4,0-0.6,0c-1.3,0-2.7,0-4,0c-0.2,0-0.5,0-0.5,0.3s0.3,0.3,0.5,0.3
			c0.1,0,0.1,0,0.2,0c8.3,0,16.7,0,25,0c0.1,0,0.3,0,0.4,0c0.1,0,0.2-0.2,0.2-0.3C230.1,165.5,230,165.4,229.9,165.3z M213.5,142.2
			c0.1,0.3,0.2,0.7,0.4,1c0.7,1.2,1.4,2.5,2.3,3.6c2.3,3.1,5.1,5.8,8.3,7.9c0.9,0.6,2,1.1,2.9,1.6c-3.2,2.7-9.2,3.2-13.2-0.9
			C210.1,151.3,210.8,145.3,213.5,142.2z M214.1,156.3c0.2,0.1,0.3,0.2,0.4,0.3c1.5,1.3,3.3,2,5.3,2.3c0.1,0,0.4,0.2,0.4,0.3
			c0.1,1.1,0.2,2.1,0.3,3.2c0,0.1,0,0.1,0,0.2c-2.3,0-4.6,0-7,0C213.7,160.6,213.9,158.5,214.1,156.3z M224.4,165.2
			c0,0.1-0.3,0.1-0.4,0.1c-2.1,0-4.3,0-6.4,0c-0.2,0-0.4,0-0.6,0l0,0c-2.3,0-4.6,0-6.9,0c-0.4,0-0.5-0.1-0.5-0.5
			c0-0.3,0-0.6,0.1-0.8c0.1-0.4,0.5-0.6,1.1-0.6c2.2,0,4.4,0,6.6,0c2,0,3.9,0,5.9,0C224.2,163.3,224.8,164.3,224.4,165.2z"/>
		<path class="st1" d="M214.7,140.6c-0.5,0-0.9,0.2-1.3,0.7c-3.6,4.1-3.7,10.1-0.1,14.2c0.2,0.2,0.2,0.5,0.2,0.7
			c-0.2,2.1-0.5,4.2-0.7,6.2c0,0.3-0.1,0.4-0.4,0.4l0,0c-0.3,0-0.7,0-1,0s-0.6,0-1,0c-0.9,0-1.5,0.7-1.6,1.6c0,0.3,0,0.6,0,1
			c-0.2,0-0.3,0-0.4,0c-0.1,0-0.1,0-0.2,0c-1.3,0-2.7,0-4,0l0,0h-0.1c-0.2,0-0.4,0-0.4,0.3s0.2,0.3,0.4,0.3h0.1c0,0,0,0,0.1,0h0.1
			c2.2,0,4.4,0,6.6,0c6.1,0,12.3,0,18.4,0c0.1,0,0.2,0,0.2,0c0.1,0,0.1,0,0.2,0c0.1,0,0.2-0.2,0.2-0.3s-0.1-0.2-0.2-0.3
			c0,0-0.1,0-0.2,0c-0.1,0-0.1,0-0.2,0l0,0c-1.3,0-2.7,0-4,0c-0.2,0-0.3,0-0.5,0c0-0.3,0-0.6,0-0.9c0-1-0.7-1.6-1.7-1.7
			c-0.3,0-0.7,0-1,0s-0.6,0-0.9,0l0,0c-0.3,0-0.3-0.1-0.4-0.4c0-0.6-0.1-1.3-0.2-1.9c0-0.5-0.1-0.9-0.1-1.4c0.2,0,0.3,0,0.4,0
			c0.1,0,0.1,0,0.2,0c2.4,0,4.5-0.8,6.4-2.3c1.5-1.2,1.6-1.7,0.8-3.4s-1.9-3.2-3.1-4.6c0-0.1-0.1-0.1-0.2-0.1c-0.1,0-0.1,0-0.2,0
			h-0.1c-0.1,0.1-0.1,0.2-0.1,0.3s0.2,0.2,0.2,0.3c0.8,1,1.6,2,2.2,3.1c0.4,0.7,0.8,1.5,1,2.3c0.2,0.6,0,0.9-0.5,0.9
			c-0.1,0-0.3,0-0.4-0.1c-0.8-0.3-1.6-0.6-2.3-1c-3.8-2.4-7-5.6-9.6-9.3c-0.6-0.9-1.2-1.9-1.5-3c-0.2-0.7,0-1,0.5-1
			c0.1,0,0.3,0,0.4,0.1c0.7,0.2,1.4,0.5,2,0.8c1.2,0.8,2.3,1.6,3.5,2.5c0.1,0.1,0.3,0.1,0.4,0.1c0.1,0,0.1,0,0.1,0
			c0.2-0.2,0-0.4-0.1-0.5c-1.1-0.8-2.1-1.6-3.2-2.3c-0.7-0.5-1.5-0.8-2.3-1.1C215.1,140.6,214.9,140.6,214.7,140.6L214.7,140.6z
			 M221.3,158.4c-2.5,0-5.1-0.9-7.2-3c-4-4.1-3.4-10.1-0.6-13.2c0.1,0.3,0.2,0.7,0.4,1c0.7,1.2,1.4,2.5,2.3,3.6
			c2.3,3.1,5.1,5.8,8.3,7.9c0.9,0.6,2,1.1,2.9,1.6C225.8,157.6,223.6,158.4,221.3,158.4L221.3,158.4z M213.4,162.7
			c0.2-2.1,0.5-4.2,0.7-6.4c0.2,0.1,0.3,0.2,0.4,0.3c1.5,1.3,3.3,2,5.3,2.3c0.1,0,0.4,0.2,0.4,0.3c0.1,1.1,0.2,2.1,0.3,3.2
			c0,0.1,0,0.1,0,0.2C218.1,162.7,215.8,162.7,213.4,162.7L213.4,162.7z M217.3,163.3c1.1,0,2.2,0,3.2,0c0.9,0,1.8,0,2.7,0
			s1.6,1,1.2,1.8c0,0.1-0.3,0.1-0.4,0.1c-1.1,0-2.2,0-3.3,0s-2.1,0-3.2,0c-0.1,0-0.1,0-0.2,0c-0.1,0-0.3,0-0.4,0l0,0
			c-1.2,0-2.3,0-3.5,0c-1.1,0-2.3,0-3.4,0l0,0c-0.4,0-0.5-0.1-0.5-0.5c0-0.3,0-0.6,0.1-0.8c0.1-0.4,0.5-0.6,1.1-0.6
			c1.2,0,2.3,0,3.5,0C215.2,163.3,216.2,163.3,217.3,163.3L217.3,163.3z"/>
	</g>
	<g>
		<path class="st0" d="M224.8,144.7l0.1-0.3h0.1c0.2-0.1,0.4-0.1,0.5-0.2c-0.1,0.3-0.3,0.6-0.4,0.9L224.8,144.7z"/>
		<path class="st1" d="M228.5,139.5c-0.3,0-0.6,0.1-0.8,0.2c-0.6,0.4-0.9,1.2-0.7,1.9c0.1,0.3,0.1,0.5-0.2,0.7
			c-0.2,0.2-0.4,0.4-0.6,0.6c-0.4,0.5-0.9,0.8-1.5,1c-2.1,0.8-4.2,1.7-6.3,2.5c-0.2,0.1-0.4,0.1-0.5,0.2c-0.1,0.1-0.1,0.3-0.1,0.3
			c0,0.1,0.2,0.2,0.3,0.2l0,0c0.1,0,0.2-0.1,0.4-0.1c1.6-0.6,3.1-1.2,4.7-1.9c0.3-0.1,0.7-0.3,1-0.4c-0.1,0.2-0.2,0.3-0.3,0.4
			c-1.2,1.2-2.5,2.5-3.7,3.7c-0.2,0.2-0.4,0.4-0.1,0.6c0.1,0.1,0.1,0.1,0.2,0.1c0.1,0,0.3-0.1,0.4-0.3c1.1-1.1,2.2-2.2,3.2-3.2
			c0.3-0.3,0.5-0.6,0.7-0.8l0.1,0.1c0,0.1-0.1,0.2-0.1,0.4c-0.7,1.8-1.4,3.5-2.1,5.3c0,0.1-0.1,0.2-0.1,0.3s0.1,0.3,0.1,0.4l0,0
			c0.1,0,0.3-0.1,0.4-0.1c0.1-0.1,0.1-0.2,0.1-0.3c0.7-1.9,1.5-3.7,2.2-5.6c0.4-1.1,1-2.2,1.9-2.9l0,0c0.1-0.1,0.2-0.2,0.3-0.2
			s0.2,0,0.3,0.1c0.2,0.1,0.4,0.1,0.6,0.1c0.5,0,1-0.3,1.3-0.7c0.4-0.6,0.3-1.5-0.2-2C229.4,139.6,229,139.5,228.5,139.5
			L228.5,139.5z M228.6,142.1c-0.5,0-1-0.5-1-1s0.4-1,1-1l0,0c0.5,0,1,0.5,1,1C229.5,141.6,229.1,142.1,228.6,142.1L228.6,142.1
			L228.6,142.1z"/>
	</g>
</g>
<g>
	<path class="st0" d="M1479,199v95h43v-95H1479z M1518,282h-36v-11h36V282z M1518,268h-36v-11h36V268z M1518,254h-36v-11h36V254z
		 M1518,239h-36v-11h36V239z M1518,225h-36v-11h36V225z"/>
	<path class="st1" d="M1522,199v95h-43v-95H1522 M1482,225h36v-11h-36V225 M1482,239h36v-11h-36V239 M1482,254h36v-11h-36V254
		 M1482,268h36v-11h-36V268 M1482,282h36v-11h-36V282 M1523,198h-1h-43h-1v1v95v1h1h43h1v-1v-95V198L1523,198z M1483,215h34v9h-34
		V215L1483,215z M1483,229h34v9h-34V229L1483,229z M1483,244h34v9h-34V244L1483,244z M1483,258h34v9h-34V258L1483,258z M1483,272h34
		v9h-34V272L1483,272z"/>
</g>
<g>
	<rect x="1396" y="205" class="st1" width="2" height="13"/>
	<rect x="1389" y="221" class="st1" width="31" height="2"/>
	<g>
		<g>
			<path class="st0" d="M1412.5,311.5v-9h-15v9h-8v-94h31v94H1412.5z M1396.5,298.5h18v-3h-18V298.5z M1396.5,289.5h18v-3h-18V289.5
				z M1396.5,281.5h18v-3h-18V281.5z M1396.5,272.5h18v-3h-18V272.5z M1396.5,263.5h18v-3h-18V263.5z M1396.5,255.5h18v-3h-18V255.5
				z M1396.5,247.5h18v-3h-18V247.5z M1396.5,239.5h18v-3h-18V239.5z M1396.5,230.5h18v-3h-18V230.5z"/>
		</g>
		<g>
			<path class="st1" d="M1420,218v93h-7v-8v-1h-1h-14h-1v1v8h-7v-93H1420 M1396,231h1h17h1v-1v-2v-1h-1h-17h-1v1v2V231 M1396,240h1
				h17h1v-1v-2v-1h-1h-17h-1v1v2V240 M1396,248h1h17h1v-1v-2v-1h-1h-17h-1v1v2V248 M1396,256h1h17h1v-1v-2v-1h-1h-17h-1v1v2V256
				 M1396,264h1h17h1v-1v-2v-1h-1h-17h-1v1v2V264 M1396,273h1h17h1v-1v-2v-1h-1h-17h-1v1v2V273 M1396,282h1h17h1v-1v-2v-1h-1h-17h-1
				v1v2V282 M1396,290h1h17h1v-1v-2v-1h-1h-17h-1v1v2V290 M1396,299h1h17h1v-1v-2v-1h-1h-17h-1v1v2V299 M1421,217h-32v95h9v-9h14v9
				h9V217L1421,217z M1397,230v-2h17v2H1397L1397,230z M1397,239v-2h17v2H1397L1397,239z M1397,247v-2h17v2H1397L1397,247z
				 M1397,255v-2h17v2H1397L1397,255z M1397,263v-2h17v2H1397L1397,263z M1397,272v-2h17v2H1397L1397,272z M1397,281v-2h17v2H1397
				L1397,281z M1397,289v-2h17v2H1397L1397,289z M1397,298v-2h17v2H1397L1397,298z"/>
		</g>
	</g>
</g>
<g>
	<g>
		<path class="st1" d="M1467,237.7V308h-35v-49.4L1467,237.7 M1468,236l-37,22v51h37V236L1468,236z"/>
	</g>
	<rect x="1437" y="271" class="st1" width="1" height="34"/>
	<rect x="1442" y="268" class="st1" width="1" height="37"/>
	<rect x="1447" y="265" class="st1" width="1" height="40"/>
	<rect x="1452" y="262" class="st1" width="1" height="43"/>
	<rect x="1457" y="259" class="st1" width="1" height="46"/>
	<rect x="1462" y="256" class="st1" width="1" height="49"/>
</g>
<path class="st1" d="M1582.3,170c0,0-0.4-3.1,2.5-3.1s2.6,1.5,2.6,1.5s1.5-1.5,2.7-0.3s0.6,2.3,0.6,2.3s2.1,0.5,1.6,2.4
	s-3,1.5-3,1.5s-0.8,1.4-2.3,1.3c-1.4-0.1-3.1-0.9-3.1-0.9s-0.4,0.8-2.9,0.4c-2.5-0.4-2.9-0.4-3.3-1.2s-0.1-2.1,1.2-1.8
	c0,0-0.3-1.8,1.3-2.3C1581.9,169.4,1582.3,170,1582.3,170z"/>
<path class="st3" d="M1423.5,194.3c0,0-0.2-2.1,2.9-3.1s5.5,0,5.5,0s2.6-1.5,5.6-0.9s4,2.5,3.5,3.4c0,0,4.2,0.3,2.9,2.8
	s-7.1,1.5-7.1,1.5s-3.2,2.1-8.2,0.9c0,0-4.8,0.4-6.9-1.6S1423.5,194.3,1423.5,194.3z"/>
<g>
	<g>
		<circle class="st2" cx="1454" cy="337.2" r="9"/>
		<g>
			<path class="st1" d="M1454,328.7c4.7,0,8.5,3.8,8.5,8.5s-3.8,8.5-8.5,8.5s-8.5-3.8-8.5-8.5S1449.3,328.7,1454,328.7 M1454,327.7
				c-5.2,0-9.5,4.3-9.5,9.5s4.3,9.5,9.5,9.5s9.5-4.3,9.5-9.5S1459.2,327.7,1454,327.7L1454,327.7z"/>
		</g>
	</g>
	<polygon class="st1" points="1450,339.2 1450.5,339.7 1452.5,341.2 1453,341.2 1453,339.1 1455,340.2 1455,344.2 1458,343.2 
		1460,341.2 1460,342.2 1455,345.2 1455,351.2 1453,351.2 1453,343.2 1452,342.2 1451,341.2 1449,342.2 1450,340.2 	"/>
</g>
<g>
	<g>
		<circle class="st0" cx="1552" cy="256.2" r="9"/>
		<g>
			<path class="st1" d="M1552,247.7c4.7,0,8.5,3.8,8.5,8.5s-3.8,8.5-8.5,8.5s-8.5-3.8-8.5-8.5S1547.3,247.7,1552,247.7 M1552,246.7
				c-5.2,0-9.5,4.3-9.5,9.5s4.3,9.5,9.5,9.5s9.5-4.3,9.5-9.5S1557.2,246.7,1552,246.7L1552,246.7z"/>
		</g>
	</g>
	<polygon class="st1" points="1548,258.2 1548.5,258.7 1550.5,260.2 1551,260.2 1551,258.1 1553,259.2 1553,263.2 1556,262.2 
		1558,260.2 1558,261.2 1553,264.2 1553,271.2 1551,272.2 1551,262.2 1550,261.2 1549,260.2 1547,261.2 1548,259.2 	"/>
</g>
<g>
	<g>
		<path class="st0" d="M1607.8,261.9c-3.4,0-6.4-6.9-6.4-15.1s2.9-15.1,6.4-15.1c3.4,0,6.4,6.9,6.4,15.1S1611.3,261.9,1607.8,261.9z
			"/>
		<g>
			<path class="st1" d="M1607.8,232.2c2.8,0,5.9,6,5.9,14.6s-3.1,14.6-5.9,14.6s-5.9-6-5.9-14.6
				C1602,238.2,1605.1,232.2,1607.8,232.2 M1607.8,231.2c-3.8,0-6.9,7-6.9,15.6s3.1,15.6,6.9,15.6s6.9-7,6.9-15.6
				C1614.7,238.2,1611.6,231.2,1607.8,231.2L1607.8,231.2z"/>
		</g>
	</g>
	<polygon class="st1" points="1607.7,240.5 1608.6,240.5 1608.2,271.1 1607.1,271.1 	"/>
	<polygon class="st1" points="1605,254.9 1608.3,258.5 1608,259.7 1605,255.5 	"/>
	<polygon class="st1" points="1608.4,254.6 1611.3,251.9 1611.6,252.5 1608.3,255.8 	"/>
	<polygon class="st1" points="1608.3,249.2 1605.8,246.8 1605.6,247.1 1608.3,250.1 	"/>
	<polygon class="st1" points="1608.3,246.3 1610.4,244.1 1610.4,244.8 1608.6,247.1 	"/>
	<polygon class="st1" points="1608.3,242.9 1606.7,241.5 1607,240.8 1608.3,242.5 	"/>
</g>
<g>
	<g>
		<ellipse class="st0" cx="1623" cy="251.9" rx="4.6" ry="11.8"/>
		<g>
			<path class="st1" d="M1623,240.6c1.9,0,4.1,4.8,4.1,11.3c0,6.5-2.2,11.3-4.1,11.3s-4.1-4.8-4.1-11.3S1621,240.6,1623,240.6
				 M1623,239.6c-2.8,0-5.1,5.5-5.1,12.3s2.3,12.3,5.1,12.3c2.8,0,5.1-5.5,5.1-12.3S1625.8,239.6,1623,239.6L1623,239.6z"/>
		</g>
	</g>
	<polygon class="st1" points="1623,247.2 1624,247.2 1624,271.2 1623,271.6 	"/>
	<polygon class="st1" points="1622.1,248 1623.8,250.7 1623.4,251.2 1621.9,248.4 	"/>
	<polygon class="st1" points="1623.4,253.4 1625.1,252.2 1625.3,252.8 1623.3,254 	"/>
	<polygon class="st1" points="1623.3,258.4 1620.9,256.4 1620.9,257 1623.4,259.7 	"/>
</g>
<g>
	<g>
		<g>
			<path class="st1" d="M1173.3,241.4l3.5,6.8h-6.4L1173.3,241.4 M1173.2,239.1l-4.4,10.2h9.5L1173.2,239.1L1173.2,239.1z"/>
		</g>
	</g>
	<g>
		<g>
			<path class="st1" d="M1175.8,249.2l3.1,6h-11.3l3.4-6H1175.8 M1176.4,248.2h-6l-4.5,8h14.6L1176.4,248.2L1176.4,248.2z"/>
		</g>
	</g>
	<g>
		<g>
			<path class="st1" d="M1176.8,256.2l3.8,7h-14.8l3.5-7H1176.8 M1177.4,255.2h-8.7l-4.5,9h18.1L1177.4,255.2L1177.4,255.2z"/>
		</g>
	</g>
	<rect x="1173" y="264.2" class="st1" width="1" height="5"/>
</g>
<g>
	<g>
		<g>
			<path class="st1" d="M1388.3,324.4l3.5,6.8h-6.4L1388.3,324.4 M1388.2,322.1l-4.4,10.2h9.5L1388.2,322.1L1388.2,322.1z"/>
		</g>
	</g>
	<g>
		<g>
			<path class="st1" d="M1390.8,332.2l3.1,6h-11.3l3.4-6H1390.8 M1391.4,331.2h-6l-4.5,8h14.6L1391.4,331.2L1391.4,331.2z"/>
		</g>
	</g>
	<g>
		<g>
			<path class="st1" d="M1391.8,339.2l3.8,7h-14.8l3.5-7H1391.8 M1392.4,338.2h-8.7l-4.5,9h18.1L1392.4,338.2L1392.4,338.2z"/>
		</g>
	</g>
	<rect x="1388" y="347.2" class="st1" width="1" height="5"/>
</g>
<g>
	<g>
		<polygon class="st0" points="1327.2,321.7 1332.5,309.4 1338.8,321.7 		"/>
		<g>
			<path class="st1" d="M1332.5,310.6l5.4,10.6h-10L1332.5,310.6 M1332.5,308.2l-6,14h13.1L1332.5,308.2L1332.5,308.2z"/>
		</g>
	</g>
	<g>
		<polygon class="st0" points="1323.3,332.7 1329,322.7 1336.7,322.7 1341.8,332.7 		"/>
		<g>
			<path class="st1" d="M1336.4,323.2l4.6,9h-16.8l5.1-9H1336.4 M1337,322.2h-8.2l-6.2,11h20.1L1337,322.2L1337,322.2z"/>
		</g>
	</g>
	<g>
		<polygon class="st0" points="1321.3,344.7 1326.8,333.7 1337.8,333.7 1343.8,344.7 		"/>
		<g>
			<path class="st1" d="M1337.5,334.2l5.4,10h-20.8l5-10H1337.5 M1338.1,333.2h-11.6l-6,12h24.1L1338.1,333.2L1338.1,333.2z"/>
		</g>
	</g>
	<rect x="1332" y="344.2" class="st1" width="1" height="7"/>
</g>
<path class="st1" d="M1600.6,253.3l-0.3,1.1c1.2-0.3,2.4-0.5,3.6-0.8l-0.3-1C1602.6,252.8,1601.6,253,1600.6,253.3z"/>
<path class="st1" d="M1599,255.9c-18.5,4.4-34.2,9-46.1,12.9v1c12-3.9,27.9-8.6,46.7-13L1599,255.9z"/>
<g>
	<path class="st1" d="M1553,316h-18.8l9.8-11.9c0.2-0.2,0.1-0.5-0.1-0.7s-0.5-0.1-0.7,0.1l-10.3,12.5h-12.2l9.7-11.9
		c0.2-0.2,0.1-0.5-0.1-0.7s-0.5-0.1-0.7,0.1l-10.2,12.5h-10.9l13.4-17h87l13.3,17h-11l-9.9-12.3c-0.2-0.2-0.5-0.2-0.7-0.1
		c-0.2,0.2-0.2,0.5-0.1,0.7l9.4,11.7h-12l-10.7-12.3c-0.2-0.2-0.5-0.2-0.7-0.1c-0.2,0.2-0.2,0.5-0.1,0.7l10.1,11.7H1578v1h46.3
		l-14.9-19h-87.9l-15,19h46.5V316z"/>
	<g>
		<path class="st0" d="M1576.5,350.5V320c0-6.3-5.2-11.5-11.5-11.5c-0.6,0-1.3,0.1-1.9,0.1c-5.5,0.9-9.6,5.9-9.6,11.7v30.2h-44v-33
			h39.3L1565,294l16.2,23.5h39.3v33H1576.5z M1599.5,345.5h15v-23h-15V345.5z M1580.5,345.5h15v-23h-15V345.5z M1533.5,345.5h15v-23
			h-15V345.5z M1514.5,345.5h15v-23h-15V345.5z"/>
		<path class="st1" d="M1565,294.9l15.7,22.6l0.3,0.4h0.5h38.5v32h-43v-30c0-6.6-5.4-12-12-12c-0.6,0-1.3,0.1-2,0.2
			c-5.7,0.9-10,6.1-10,12.2V350h-43v-32h38.5h0.5l0.3-0.4L1565,294.9 M1599,346h1h14h1v-1v-22v-1h-1h-14h-1v1v22V346 M1580,346h1h14
			h1v-1v-22v-1h-1h-14h-1v1v22V346 M1533,346h1h14h1v-1v-22v-1h-1h-14h-1v1v22V346 M1514,346h1h14h1v-1v-22v-1h-1h-14h-1v1v22V346
			 M1565,293.1l-16.5,23.8H1509v34h45v-30.7c0-5.4,3.8-10.3,9.2-11.2c0.6-0.1,1.2-0.1,1.8-0.1c6.1,0,11,4.9,11,11v31h45v-34h-39.5
			L1565,293.1L1565,293.1z M1600,345v-22h14v22H1600L1600,345z M1581,345v-22h14v22H1581L1581,345z M1534,345v-22h14v22H1534
			L1534,345z M1515,345v-22h14v22H1515L1515,345z"/>
	</g>
</g>
<g>
	<path class="st1" d="M1497.3,192.5c-1.6,1.4-4.7,1.6-6.8-0.5c-2-2.1-1.7-5.2-0.3-6.7c0.1,0.2,0.1,0.3,0.2,0.5
		c0.4,0.6,0.7,1.3,1.2,1.9c1.2,1.6,2.6,2.9,4.3,4C1496.2,192,1496.8,192.3,1497.3,192.5z"/>
	<g>
		<path class="st2" d="M1498.6,197.2c0,0-0.1,0-0.2,0c-0.7,0-1.4,0-2.1,0c-0.1,0-0.2,0-0.3,0c0-0.2,0-0.3,0-0.5
			c0-0.5-0.4-0.8-0.9-0.8c-0.3,0-0.6,0-1,0c-0.1,0-0.2-0.1-0.2-0.2c0-0.3-0.1-0.7-0.1-1c0-0.2,0-0.5-0.1-0.7c0.1,0,0.2,0,0.3,0
			c1.2,0,2.3-0.4,3.3-1.1c0.8-0.6,0.8-0.9,0.4-1.7c-0.4-0.9-1-1.6-1.6-2.3l-0.1-0.1c-0.1,0-0.1,0-0.2,0c0,0-0.1,0.1,0,0.2
			c0,0.1,0.1,0.1,0.1,0.2c0.4,0.5,0.8,1,1.1,1.6c0.2,0.4,0.4,0.8,0.5,1.2s-0.1,0.6-0.5,0.4c-0.4-0.1-0.8-0.3-1.2-0.5
			c-2-1.2-3.6-2.9-4.9-4.8c-0.3-0.5-0.6-1-0.8-1.5c-0.1-0.4,0.1-0.6,0.5-0.5c0.3,0.1,0.7,0.2,1,0.4c0.6,0.4,1.2,0.8,1.8,1.3
			c0.1,0,0.2,0.1,0.3,0c0.1-0.1,0-0.2-0.1-0.3c-0.5-0.4-1.1-0.8-1.6-1.2c-0.4-0.2-0.8-0.4-1.2-0.5c-0.4-0.1-0.7,0-1,0.3
			c-1.9,2.1-1.9,5.1,0,7.3c0.1,0.1,0.1,0.2,0.1,0.4c-0.1,1.1-0.2,2.1-0.3,3.2c0,0.1-0.1,0.2-0.2,0.2c-0.3,0-0.7,0-1,0
			c-0.5,0-0.8,0.4-0.8,0.8c0,0.2,0,0.3,0,0.5c-0.1,0-0.2,0-0.3,0c-0.7,0-1.4,0-2.1,0c-0.1,0-0.3,0-0.3,0.2s0.1,0.2,0.3,0.2h0.1
			c4.3,0,8.5,0,12.8,0c0.1,0,0.2,0,0.2,0c0.1,0,0.1-0.1,0.1-0.1C1498.7,197.2,1498.6,197.2,1498.6,197.2z M1490.2,185.3
			c0.1,0.2,0.1,0.3,0.2,0.5c0.4,0.6,0.7,1.3,1.2,1.9c1.2,1.6,2.6,2.9,4.3,4c0.5,0.3,1,0.5,1.5,0.8c-1.6,1.4-4.7,1.6-6.8-0.5
			C1488.5,190,1488.8,186.9,1490.2,185.3z M1490.5,192.5c0.1,0.1,0.2,0.1,0.2,0.2c0.8,0.6,1.7,1,2.7,1.2c0.1,0,0.2,0.1,0.2,0.2
			c0.1,0.5,0.1,1.1,0.1,1.6v0.1c-1.2,0-2.4,0-3.6,0C1490.3,194.7,1490.4,193.7,1490.5,192.5z M1495.7,197.1c0,0-0.1,0.1-0.2,0.1
			c-1.1,0-2.2,0-3.3,0c-0.1,0-0.2,0-0.3,0l0,0c-1.2,0-2.3,0-3.5,0c-0.2,0-0.3-0.1-0.3-0.3c0-0.1,0-0.3,0-0.4
			c0.1-0.2,0.3-0.3,0.5-0.3c1.1,0,2.3,0,3.4,0c1,0,2,0,3,0C1495.6,196.1,1496,196.6,1495.7,197.1z"/>
		<path class="st1" d="M1490.8,184.5c-0.2,0-0.5,0.1-0.7,0.3c-1.9,2.1-1.9,5.1,0,7.3c0.1,0.1,0.1,0.2,0.1,0.4
			c-0.1,1.1-0.2,2.1-0.3,3.2c0,0.1-0.1,0.2-0.2,0.2l0,0c-0.2,0-0.3,0-0.5,0s-0.3,0-0.5,0c-0.5,0-0.8,0.4-0.8,0.8c0,0.2,0,0.3,0,0.5
			c-0.1,0-0.2,0-0.3,0c-0.7,0-1.4,0-2.1,0l0,0l0,0c-0.1,0-0.2,0-0.2,0.2c0,0.1,0.1,0.2,0.2,0.2l0,0l0,0c0,0,0,0,0.1,0
			c1.1,0,2.1,0,3.2,0c3.2,0,6.4,0,9.6,0h0.1h0.1c0.1,0,0.1-0.1,0.1-0.1l-0.1-0.1h-0.1h-0.1l0,0c-0.7,0-1.4,0-2.1,0
			c-0.1,0-0.2,0-0.3,0c0-0.2,0-0.3,0-0.5c0-0.5-0.4-0.8-0.9-0.8c-0.2,0-0.3,0-0.5,0c-0.1,0-0.3,0-0.4,0l0,0c-0.1,0-0.2-0.1-0.2-0.2
			c0-0.3-0.1-0.7-0.1-1c0-0.2,0-0.5-0.1-0.7c0.1,0,0.1,0,0.2,0h0.1c1.2,0,2.3-0.4,3.3-1.1c0.8-0.6,0.8-0.9,0.4-1.7
			c-0.4-0.9-1-1.6-1.6-2.3l-0.1-0.1h-0.1c0,0,0,0-0.1,0c0,0-0.1,0.1,0,0.2c0,0.1,0.1,0.1,0.1,0.2c0.4,0.5,0.8,1,1.1,1.6
			c0.2,0.4,0.4,0.8,0.5,1.2c0.1,0.3,0,0.5-0.2,0.5c-0.1,0-0.1,0-0.2,0c-0.4-0.1-0.8-0.3-1.2-0.5c-2-1.2-3.6-2.9-4.9-4.8
			c-0.3-0.5-0.6-1-0.8-1.5c-0.1-0.3,0-0.5,0.3-0.5c0.1,0,0.1,0,0.2,0c0.3,0.1,0.7,0.2,1,0.4c0.6,0.4,1.2,0.8,1.8,1.3
			c0,0,0.1,0.1,0.2,0.1h0.1c0.1-0.1,0-0.2-0.1-0.3c-0.5-0.4-1.1-0.8-1.6-1.2c-0.4-0.2-0.8-0.4-1.2-0.5
			C1491,184.5,1490.9,184.5,1490.8,184.5L1490.8,184.5z M1494.2,193.6c-1.3,0-2.6-0.5-3.7-1.6c-2-2.1-1.7-5.2-0.3-6.7
			c0.1,0.2,0.1,0.3,0.2,0.5c0.4,0.6,0.7,1.3,1.2,1.9c1.2,1.6,2.6,2.9,4.3,4c0.5,0.3,1,0.5,1.5,0.8
			C1496.5,193.2,1495.4,193.6,1494.2,193.6L1494.2,193.6z M1490.2,195.8c0.1-1.1,0.2-2.1,0.4-3.3c0.1,0.1,0.2,0.1,0.2,0.2
			c0.8,0.6,1.7,1,2.7,1.2c0.1,0,0.2,0.1,0.2,0.2c0.1,0.5,0.1,1.1,0.1,1.6v0.1C1492.6,195.8,1491.4,195.8,1490.2,195.8L1490.2,195.8z
			 M1492.1,196.1c0.6,0,1.1,0,1.7,0c0.5,0,0.9,0,1.4,0s0.8,0.5,0.6,0.9c0,0-0.1,0.1-0.2,0.1c-0.6,0-1.1,0-1.7,0c-0.5,0-1.1,0-1.6,0
			c-0.1,0-0.2,0-0.3,0l0,0c-0.6,0-1.2,0-1.8,0c-0.6,0-1.2,0-1.7,0l0,0c-0.2,0-0.3-0.1-0.2-0.3c0-0.1,0-0.3,0-0.4
			c0.1-0.2,0.3-0.3,0.5-0.3c0.6,0,1.2,0,1.7,0S1491.6,196.1,1492.1,196.1L1492.1,196.1z"/>
	</g>
	<g>
		<path class="st0" d="M1498.5,184.2c-0.3-0.3-0.7-0.3-1-0.1s-0.5,0.6-0.3,1c0.1,0.2,0,0.3-0.1,0.4c-0.1,0.1-0.2,0.2-0.3,0.3
			c-0.2,0.2-0.5,0.4-0.7,0.5c-1.1,0.4-2.2,0.9-3.2,1.3c-0.1,0-0.2,0.1-0.3,0.1c0,0-0.1,0.1,0,0.2c0,0,0.1,0.1,0.2,0.1s0.1,0,0.2-0.1
			c0.8-0.3,1.6-0.6,2.4-1c0.2-0.1,0.3-0.1,0.5-0.2c0,0.1-0.1,0.2-0.1,0.2c-0.6,0.6-1.3,1.3-1.9,1.9c-0.1,0.1-0.2,0.2-0.1,0.3
			s0.2,0,0.3-0.1c0.6-0.5,1.1-1.1,1.6-1.7c0.1-0.1,0.3-0.3,0.4-0.4c0,0,0,0,0.1,0.1c0,0.1,0,0.1-0.1,0.2c-0.4,0.9-0.7,1.8-1.1,2.7
			l-0.1,0.1c0,0.1,0,0.2,0.1,0.2s0.2,0,0.2-0.1c0,0,0.1-0.1,0.1-0.2c0.4-1,0.8-1.9,1.1-2.9c0.2-0.6,0.5-1.1,1-1.5l0,0
			c0.1-0.1,0.2-0.1,0.3-0.1c0.4,0.1,0.8,0,1-0.3C1498.8,184.9,1498.7,184.5,1498.5,184.2z M1497.9,185.3c-0.3,0-0.5-0.2-0.5-0.5
			s0.2-0.5,0.5-0.5s0.5,0.2,0.5,0.5C1498.4,185,1498.2,185.3,1497.9,185.3z"/>
		<path class="st1" d="M1497.9,184c-0.1,0-0.3,0-0.4,0.1c-0.3,0.2-0.5,0.6-0.3,1c0.1,0.2,0,0.3-0.1,0.4c-0.1,0.1-0.2,0.2-0.3,0.3
			c-0.2,0.2-0.5,0.4-0.7,0.5c-1.1,0.4-2.2,0.9-3.2,1.3c-0.1,0-0.2,0.1-0.3,0.1c0,0-0.1,0.1,0,0.2c0,0,0.1,0.1,0.2,0.1l0,0
			c0.1,0,0.1,0,0.2-0.1c0.8-0.3,1.6-0.6,2.4-1c0.2-0.1,0.3-0.1,0.5-0.2c0,0.1-0.1,0.2-0.1,0.2c-0.6,0.6-1.3,1.3-1.9,1.9
			c-0.1,0.1-0.2,0.2-0.1,0.3h0.1c0.1,0,0.1-0.1,0.2-0.1c0.6-0.5,1.1-1.1,1.6-1.7c0.1-0.1,0.3-0.3,0.4-0.4c0,0,0,0,0.1,0.1
			c0,0.1,0,0.1-0.1,0.2c-0.4,0.9-0.7,1.8-1.1,2.7l-0.1,0.1c0,0.1,0,0.2,0.1,0.2l0,0c0.1,0,0.1,0,0.2-0.1c0,0,0.1-0.1,0.1-0.2
			c0.4-1,0.8-1.9,1.1-2.9c0.2-0.6,0.5-1.1,1-1.5l0,0c0.1-0.1,0.1-0.1,0.2-0.1h0.1c0.1,0,0.2,0.1,0.3,0.1c0.3,0,0.5-0.1,0.7-0.4
			c0.2-0.3,0.2-0.7-0.1-1C1498.3,184,1498.1,184,1497.9,184L1497.9,184z M1497.9,185.3c-0.3,0-0.5-0.2-0.5-0.5s0.2-0.5,0.5-0.5l0,0
			c0.3,0,0.5,0.2,0.5,0.5C1498.4,185,1498.2,185.3,1497.9,185.3L1497.9,185.3L1497.9,185.3z"/>
	</g>
</g>
<g>
	<path class="st1" d="M907,132.1h-17c0-2.7-2.2-4.9-4.9-4.9h-6.2c-2.7,0-4.9,2.2-4.9,4.9v0.1h-17c-0.6,0-1,0.5-1,1
		c0,1.7,1.3,3.1,3,3.3l16,1.6c-1,4.1,0,9.1,0,9.1h1c-0.6-2.6-1-6,0-9h12c1.2,3,0.9,6.5,0,9h1c0.5-2.7,1-5,0-9l16-1.7
		c1.7-0.2,3-1.6,3-3.3v-0.1C908,132.6,907.5,132.1,907,132.1z M905,135.4l-16,1.8h-14l-16.1-1.8c-1.1-0.1-1.9-1-1.9-2.1h18v-0.1
		c0-2.8,2.2-5,5-5h4c2.8,0,5,2.2,5,5h18C907,134.3,906.1,135.3,905,135.4z"/>
	<rect x="878" y="135.2" class="st1" width="8" height="1"/>
	<g>
		<rect x="878.5" y="143.7" class="st4" width="7" height="7"/>
		<path class="st1" d="M885,144.2v6h-6v-6H885 M886,143.2h-8v8h8V143.2L886,143.2z"/>
	</g>
	<path class="st1" d="M855,127.2h-5c-0.6,0-1-0.4-1-1l0,0c0-0.6,0.4-1,1-1h5c0.6,0,1,0.4,1,1l0,0C856,126.8,855.5,127.2,855,127.2z"
		/>
	<path class="st1" d="M865,127.2h-5c-0.6,0-1-0.4-1-1l0,0c0-0.6,0.4-1,1-1h5c0.6,0,1,0.4,1,1l0,0C866,126.8,865.5,127.2,865,127.2z"
		/>
	<path class="st1" d="M857.5,131.2L857.5,131.2c-0.3,0-0.5-0.2-0.5-0.5v-4c0-0.3,0.2-0.5,0.5-0.5l0,0c0.3,0,0.5,0.2,0.5,0.5v4
		C858,131,857.7,131.2,857.5,131.2z"/>
	<path class="st1" d="M904,127.2h-5c-0.6,0-1-0.4-1-1l0,0c0-0.6,0.4-1,1-1h5c0.6,0,1,0.4,1,1l0,0C905,126.8,904.5,127.2,904,127.2z"
		/>
	<path class="st1" d="M914,127.2h-5c-0.6,0-1-0.4-1-1l0,0c0-0.6,0.4-1,1-1h5c0.6,0,1,0.4,1,1l0,0C915,126.8,914.5,127.2,914,127.2z"
		/>
	<path class="st1" d="M906.5,131.2L906.5,131.2c-0.3,0-0.5-0.2-0.5-0.5v-4c0-0.3,0.2-0.5,0.5-0.5l0,0c0.3,0,0.5,0.2,0.5,0.5v4
		C907,131,906.7,131.2,906.5,131.2z"/>
</g>
<g>
	<path class="st1" d="M1626,109.1h-17c0-2.7-2.2-4.9-4.9-4.9h-6.2c-2.7,0-4.9,2.2-4.9,4.9v0.1h-17c-0.6,0-1,0.5-1,1
		c0,1.7,1.3,3.1,3,3.3l16,1.6c-1,4.1,0,9.1,0,9.1h1c-0.6-2.6-1-6,0-9h12c1.2,3,0.9,6.5,0,9h1c0.5-2.7,1-5,0-9l16-1.7
		c1.7-0.2,3-1.6,3-3.3v-0.1C1627,109.6,1626.5,109.1,1626,109.1z M1624,112.4l-16,1.8h-14l-16.1-1.8c-1.1-0.1-1.9-1-1.9-2.1h18v-0.1
		c0-2.8,2.2-5,5-5h4c2.8,0,5,2.2,5,5h18C1626,111.3,1625.1,112.3,1624,112.4z"/>
	<rect x="1597" y="112.2" class="st1" width="8" height="1"/>
	<rect x="1597" y="120.2" class="st6" width="8" height="8"/>
	<path class="st1" d="M1574,104.2h-5c-0.6,0-1-0.4-1-1l0,0c0-0.6,0.4-1,1-1h5c0.6,0,1,0.4,1,1l0,0
		C1575,103.8,1574.5,104.2,1574,104.2z"/>
	<path class="st1" d="M1584,104.2h-5c-0.6,0-1-0.4-1-1l0,0c0-0.6,0.4-1,1-1h5c0.6,0,1,0.4,1,1l0,0
		C1585,103.8,1584.5,104.2,1584,104.2z"/>
	<path class="st1" d="M1576.5,108.2L1576.5,108.2c-0.3,0-0.5-0.2-0.5-0.5v-4c0-0.3,0.2-0.5,0.5-0.5l0,0c0.3,0,0.5,0.2,0.5,0.5v4
		C1577,108,1576.7,108.2,1576.5,108.2z"/>
	<path class="st1" d="M1623,104.2h-5c-0.6,0-1-0.4-1-1l0,0c0-0.6,0.4-1,1-1h5c0.6,0,1,0.4,1,1l0,0
		C1624,103.8,1623.5,104.2,1623,104.2z"/>
	<path class="st1" d="M1633,104.2h-5c-0.6,0-1-0.4-1-1l0,0c0-0.6,0.4-1,1-1h5c0.6,0,1,0.4,1,1l0,0
		C1634,103.8,1633.5,104.2,1633,104.2z"/>
	<path class="st1" d="M1625.5,108.2L1625.5,108.2c-0.3,0-0.5-0.2-0.5-0.5v-4c0-0.3,0.2-0.5,0.5-0.5l0,0c0.3,0,0.5,0.2,0.5,0.5v4
		C1626,108,1625.7,108.2,1625.5,108.2z"/>
</g>
<polygon class="st1" points="532,134.2 531,135.2 530,134.2 530,132.2 531,131.2 532,132.2 "/>
<g>
	<path class="st1" d="M670,58c4.2,7.8,14.4,11,22,7.2c0.3-0.2,0.5-0.6,0.7-0.9c-0.4,0-0.8-0.1-1.1,0c-8.3,3.3-16.3,0.6-20.8-6.9
		c-0.2-0.3-0.6-0.4-0.9-0.6C669.9,57.2,669.9,57.6,670,58C670,58.1,670.1,58.2,670,58z"/>
	<path class="st1" d="M690.2,61.3c-0.1,0,0.2,0,0.3-0.2c0.2-0.2,0.2-0.5,0.3-0.7c-0.2-0.1-0.5-0.2-0.7-0.2c-0.7,0.2-1.3,0.5-2,0.7
		c-5.3,1.4-10.6-0.8-13.3-5.5c-0.2-0.3-0.6-0.5-0.9-0.7c0,0.4-0.1,0.9,0.1,1.2C676.9,61.7,684.1,64.1,690.2,61.3z"/>
	<path class="st1" d="M688.4,57.4c0.1-0.1,0.3-0.4,0.5-0.7c-0.4,0-0.8-0.2-1.1-0.1c-3.7,1.3-7.1,0.2-9.2-3c-0.2-0.3-0.6-0.4-0.9-0.7
		c0,0.4-0.1,0.9,0.1,1.2C679.7,57.6,684.5,59.2,688.4,57.4z"/>
	<path class="st1" d="M687.9,46.7c0-0.2,0.1-0.5,0.1-0.7c-1.1-0.4-2.2-0.7-3.3-1.1c-0.1,0.2-0.2,0.4-0.3,0.6
		c-0.1-1.1-0.1-2.3-0.2-3.5c2.3,0,4.2,0.6,5.9,2C689.3,44.9,688.6,45.8,687.9,46.7z"/>
	<path class="st2" d="M684.3,42c0.1,1.3,0.1,2.4,0.2,3.5c0.1-0.2,0.2-0.4,0.3-0.6c1.1,0.4,2.2,0.7,3.3,1.1c0,0.2-0.1,0.5-0.1,0.7
		c0.7-0.9,1.5-1.8,2.3-2.8C688.4,42.5,686.5,42,684.3,42z"/>
	<path class="st1" d="M727.5,19.7c-6-2-11.9-4-17.9-6c-1.6-0.5-1.9-0.4-2.4,1.2c-0.2,0.5-0.3,0.9-0.5,1.5c-0.6-0.2-1-0.4-1.8-0.6
		c0.5-1.5,1.1-2.9,1.6-4.3c0.5-1.6,0.3-2-1.3-2.5c-4-1.3-8-2.7-12-4c-1.4-0.5-1.9-0.2-2.4,1.2s-0.9,2.9-1.4,4.6
		c-0.6-0.3-1.1-0.5-1.7-0.8c0.2-0.5,0.4-1.1,0.5-1.7c0.3-1.1,0.1-1.6-1-2c-6.2-2.1-12.3-4.1-18.5-6.2c-1.1-0.4-1.6-0.1-2,1
		c-1.8,5.2-3.5,10.4-5.2,15.7c-0.4,1.1-0.1,1.6,1,2c6.2,2.1,12.3,4.1,18.5,6.2c1.1,0.4,1.6,0.1,2-1c0.2-0.6,0.3-1.2,0.4-2
		c0.8,0.4,1.2,0.6,1.8,0.9c-0.4,1.3-0.8,2.6-1.4,3.9c-0.1,0.3-0.6,0.5-1,0.7c-4.9,1.6-8.3,4.7-10.3,9.4c-0.5,1.2-0.3,2.1,0.7,2.8
		c1.4,1,2.9,2,4.5,2.9c1.6,0.8,3.2,1.4,4.9,2.2c0.3,0.1,0.8,0.5,0.8,0.7c0,0.3-0.3,0.7-0.6,0.9c-1.8,1.2-2.5,3.5-1.5,5.4
		c0.9,1.8,3,2.7,4.9,2.1c2-0.6,3.2-2.6,2.9-4.6c-0.1-0.3-0.2-0.6-0.3-0.9c0-0.3-0.1-0.8,0-0.9c0.2-0.2,0.7-0.2,1-0.2
		c1.6,0.3,3.2,0.8,4.8,1.1c1.9,0.3,3.8,0.5,5.7,0.5c1.6,0,1.9-0.4,2.3-2c1.2-4.9,0.3-9.4-2.6-13.5c-0.4-0.5-0.5-0.9-0.3-1.6
		c0.4-1.2,0.8-2.4,1.2-3.7c0.7,0.2,1.2,0.4,1.9,0.7c-0.2,0.5-0.5,1-0.7,1.5c-0.5,1.3-0.2,1.8,1.1,2.2c5.6,1.9,11.3,3.8,16.9,5.6
		c2.9,1,2.9,1,3.9-2c1.5-4.6,3.1-9.2,4.6-13.9C729.2,20.6,729,20.2,727.5,19.7z M722.5,19.3c-0.5,1.6-1,3.2-1.5,4.5
		c-1.2-0.4-2.5-0.7-3.7-1.1c0.5-1.6,1-3.2,1.5-4.7C720.1,18.4,721.4,18.9,722.5,19.3z M720.6,25.1c-0.5,1.6-1,3.2-1.4,4.6
		c-1.3-0.4-2.6-0.9-3.7-1.2c0.5-1.5,0.9-3,1.4-4.5C718.1,24.4,719.4,24.8,720.6,25.1z M717.4,17.7c-0.5,1.4-1,3-1.4,4.5
		c-1.3-0.4-2.6-0.9-3.8-1.3c0.5-1.5,1-3,1.5-4.4C714.9,16.9,716.2,17.3,717.4,17.7z M715.4,23.5c-0.5,1.5-1,3.1-1.5,4.5
		c-1.2-0.4-2.5-0.8-3.7-1.2c0.5-1.5,1-3.1,1.5-4.6C713,22.6,714.3,23.1,715.4,23.5z M708.2,15.1c0.1-0.2,0.5-0.5,0.7-0.4
		c1.2,0.3,2.4,0.7,3.5,1c-0.6,1.8-1.1,3.4-1.6,4.9c-1.3-0.4-2.6-0.9-4-1.4C707.3,17.8,707.7,16.4,708.2,15.1z M710.3,21.8
		c-0.5,1.5-1,3.1-1.4,4.6c-1.3-0.4-2.6-0.8-3.8-1.2c0.5-1.6,1-3.1,1.5-4.6C707.8,21,709.1,21.4,710.3,21.8z M687.2,7.5
		c-0.5,1.6-1,3.1-1.5,4.5c-1.3-0.4-2.6-0.8-3.8-1.2c0.5-1.5,1-3.1,1.4-4.5C684.6,6.7,685.9,7.1,687.2,7.5z M682.1,5.8
		c-0.5,1.5-1,3.1-1.5,4.6c-1.3-0.4-2.6-0.8-3.7-1.2c0.5-1.5,1-3.1,1.5-4.5C679.5,5,680.8,5.4,682.1,5.8z M676.2,10.6
		c1.3,0.4,2.6,0.8,3.6,1.1c-0.5,1.5-1,3.1-1.5,4.6c-1.1-0.4-2.4-0.8-3.6-1.2C675.3,13.5,675.8,12,676.2,10.6z M673.4,14.5
		c-1.2-0.4-2.6-0.9-3.7-1.3c0.5-1.5,1-3,1.4-4.5c1.2,0.4,2.5,0.8,3.7,1.3C674.4,11.5,673.9,13.1,673.4,14.5z M676.9,4.1
		c-0.5,1.6-1,3.1-1.5,4.6c-1.3-0.4-2.6-0.8-3.9-1.2c0.5-1.6,1-3.2,1.5-4.7C674.4,3.3,675.7,3.7,676.9,4.1z M667.7,1.5
		c0.1-0.2,0.5-0.4,0.7-0.3c1.2,0.3,2.4,0.7,3.4,1c-0.6,1.8-1.1,3.4-1.6,4.8c-1.3-0.4-2.6-0.9-4.1-1.4C666.7,4.3,667.2,2.9,667.7,1.5
		z M666,7c1.3,0.4,2.6,0.8,3.8,1.2c-0.5,1.5-1,3.1-1.5,4.5c-1.3-0.4-2.6-0.8-3.8-1.3C665,10.1,665.5,8.6,666,7z M662.5,17.5
		c0.5-1.5,1-3.1,1.5-4.5c1.3,0.4,2.6,0.9,3.8,1.3c-0.5,1.4-0.9,3-1.4,4.4C665.1,18.3,663.8,17.9,662.5,17.5z M667.7,19.2
		c0.5-1.6,1-3.1,1.5-4.5c1.2,0.4,2.6,0.8,3.8,1.2c-0.5,1.5-1,3.1-1.5,4.6C670.2,20.1,668.9,19.6,667.7,19.2z M672.9,21.1
		c0.5-1.7,1-3.2,1.5-4.6c1.3,0.4,2.6,0.8,3.7,1.1c-0.5,1.6-1,3.1-1.5,4.6C675.3,21.8,674,21.4,672.9,21.1z M681.7,23.9
		c-1.2-0.4-2.5-0.8-3.7-1.1c0.5-1.6,1-3.2,1.5-4.6c1.3,0.4,2.6,0.8,3.7,1.2C682.7,20.8,682.1,22.4,681.7,23.9z M679.9,16.8
		c0.5-1.5,1-3.1,1.6-4.6c1.2,0.4,2.5,0.9,3.6,1.3c-0.5,1.5-1,3.1-1.5,4.6C682.4,17.6,681.1,17.2,679.9,16.8z M684.2,21.1
		c1.1-3.3,2.2-6.6,3.3-10c0.2,0.1,0.5,0.1,0.7,0.2c0.2,0.1,0.4,0.1,0.6,0.2c-0.6,1.7-1.1,3.4-1.6,5.1c-0.3,0.8-0.5,1.7-0.8,2.5
		s-0.5,1.7-0.8,2.6C685,21.5,684.6,21.3,684.2,21.1z M686.3,52.6c-1.6,0.8-3.4,0.2-4.2-1.4c-0.8-1.5-0.1-3.4,1.4-4.2
		s3.4-0.1,4.2,1.4C688.5,49.9,687.9,51.8,686.3,52.6z M699.5,47.7c-3.1-0.5-6.1-1-9.2-1.6c-0.1,0-0.2-0.2-0.2-0.1
		c0.4-0.9,1.3-2,1.1-2.4c-0.4-0.8-1.5-1.1-2.4-1.7c-0.2-0.1-0.4-0.2-0.7-0.3c-1.6-0.6-3.2-0.8-4.9-0.6c0,1,0,1.8,0.1,3
		c-2.6-1.3-5-2.4-7.3-3.7c-0.8-0.4-1.5-1-2.2-1.6c-0.2-0.2-0.4-0.5-0.4-0.8c0-0.1,0.4-0.3,0.7-0.3c0.8-0.1,1.6-0.1,2.3,0
		c4.9,0.4,9.5,1.8,14,3.5c3.4,1.2,6.7,2.6,9.6,4.7c0.5,0.4,0.8,1,1.2,1.5C700.7,47.5,700,47.8,699.5,47.7z M701.7,45.5
		c-8.5-5.4-17.7-8.4-27.7-9.2c2-5.3,9.7-10.8,18.5-7.6C700.8,31.8,703.3,40.6,701.7,45.5z M699,30.6c-0.1,0.3-0.2,0.5-0.4,0.8
		c-3.9-3.6-8.4-5.1-13.6-4.5c0.1-0.3,0.1-0.5,0.1-0.7c2.2-6.6,4.4-13.1,6.6-19.7c0.2-0.7,0.6-0.7,1.2-0.5c3.9,1.3,7.8,2.6,11.7,3.9
		c0.9,0.3,1.1,0.6,0.8,1.6C703.2,17.8,701.1,24.2,699,30.6z M701.6,26.9c1.1-3.3,2.1-6.6,3.2-9.8c0.5,0.1,1,0.2,1.4,0.3
		c-1.1,3.4-2.2,6.7-3.3,10.1C702.4,27.3,702,27.1,701.6,26.9z M703.1,31c0.5-1.5,1-3.1,1.5-4.5c1.2,0.4,2.5,0.7,3.8,1.1
		c-0.5,1.6-1,3.2-1.5,4.6C705.7,31.8,704.3,31.3,703.1,31z M708.3,32.8c0.5-1.6,1-3.2,1.5-4.6c1.2,0.4,2.5,0.8,3.8,1.2
		c-0.5,1.5-1,3.1-1.5,4.6C710.8,33.6,709.5,33.2,708.3,32.8z M713.3,34.3c0.5-1.5,1-3,1.5-4.5c1.3,0.4,2.6,0.9,3.8,1.2
		c-0.5,1.5-1,3.1-1.6,4.5C715.9,35.2,714.6,34.7,713.3,34.3z M722.3,37.3c-1.3-0.4-2.6-0.9-3.7-1.2c0.5-1.5,1-3,1.5-4.5
		c1.2,0.4,2.5,0.8,3.7,1.2C723.3,34.3,722.8,35.9,722.3,37.3z M724.2,31.4c-1.2-0.4-2.6-0.8-3.8-1.2c0.5-1.6,1-3.1,1.5-4.6
		c1.2,0.4,2.6,0.9,3.7,1.3C725.2,28.4,724.7,30,724.2,31.4z M726.1,25.7c-1.2-0.4-2.4-0.9-3.7-1.3c0.5-1.5,1-3.1,1.4-4.5
		c1.3,0.4,2.6,0.8,3.7,1.2C727.1,22.6,726.6,24.1,726.1,25.7z"/>
</g>
<g>
	<g>
		<path class="st2" d="M1129.5,326.9c-0.2,0-1.8-0.2-2.9-1.4c-0.9-1-1.4-2.5-1.3-4.4c0.2-4.9,3.4-8.8,4.5-10
			c1.1,1.4,4.7,6.1,4.7,9.2C1134.5,326.1,1130,326.9,1129.5,326.9z"/>
		<g>
			<path class="st1" d="M1129.7,311.9c1.6,2.1,4.3,6,4.3,8.5c0,5.2-3.9,6-4.5,6.1c-0.6,0-3.9-0.5-3.7-5.3
				C1125.9,316.9,1128.4,313.4,1129.7,311.9 M1129.8,310.4c0,0-4.8,4.5-5,10.7s4.8,6.3,4.8,6.3s5.4-0.6,5.4-7.1
				C1135,316.5,1129.8,310.4,1129.8,310.4L1129.8,310.4z"/>
		</g>
	</g>
	<g>
		<path class="st0" d="M1120.4,340c0,0-2.2-0.4-2.5-2.6c-0.4-2.2,1.8-3.4,1.8-3.4l0.3-0.2l-0.1-0.4c-0.1-0.4,0.4-1.4,2.8-2
			c0.3-0.1,0.6-0.1,0.9-0.1c2.2,0,2.8,2.3,2.8,2.4l0.1,0.4l0.5-0.1c0.3-0.1,0.6-0.1,0.9-0.1c1.9,0,3.4,1.1,3.7,2.7
			c0.3,1.6-1.8,3-2.3,3.3h-8.9V340z"/>
		<g>
			<path class="st1" d="M1123.7,331.8L1123.7,331.8c1.8,0,2.3,1.9,2.3,2l0.2,0.9l0.9-0.2c0.3,0,0.6-0.1,0.8-0.1c1.7,0,3,0.9,3.2,2.3
				c0.2,1.1-1.2,2.2-2,2.7h-8.6c-0.4-0.1-1.9-0.5-2.2-2.2c-0.3-1.8,1.5-2.8,1.6-2.9l0.8-0.3l-0.3-0.8c0-0.3,0.5-1,2.4-1.5
				C1123.1,331.9,1123.4,331.8,1123.7,331.8 M1123.7,330.8c-0.3,0-0.7,0-1.1,0.1c-3.5,0.9-3.1,2.6-3.1,2.6s-2.5,1.3-2.1,3.9s3,3,3,3
				h9c0,0,3.1-1.7,2.7-3.9c-0.4-1.9-2.1-3.1-4.2-3.1c-0.3,0-0.6,0-1,0.1C1126.9,333.6,1126.3,330.8,1123.7,330.8L1123.7,330.8z"/>
		</g>
	</g>
	<polygon class="st1" points="1130,334 1129.5,333.6 1129.5,315.4 1130,315.4 	"/>
	<polygon class="st3" points="1129.5,324.6 1127,319.2 1127.4,319 1129.6,323.7 1132,319.6 1132.4,319.8 	"/>
</g>
<g>
	<path class="st1" d="M1006,342.6c-66.7,2.9-129.9,8.9-185,17.7v1c55.1-8.8,118.3-14.9,185-17.7V342.6z"/>
	<path class="st1" d="M1096,340.7c-29.1,0-57.8,0.6-86,1.8v1c28.2-1.2,56.9-1.8,86-1.8c11.2,0,22.4,0.1,33.5,0.3v-1
		C1118.3,340.8,1107.2,340.7,1096,340.7z"/>
</g>
<path class="st3" d="M796,368.7h87.9c0,0,2.1-1.3,2.1-2.4l0,0c0-1.2-2.1-2.6-2.1-2.6H882c-1.9,0-3.5-1.6-3.5-3.5l0,0
	c0-1.9,1.6-3.5,3.5-3.5h51.9c1.9,0,3.5,1.6,3.5,3.5l0,0c0,1.9-1.6,3.5-3.5,3.5h-6.8c0,0-2.1,1.4-2.1,2.6l0,0c0,1.2,0.9,2.1,2.1,2.4
	h148.8c1.2-0.3,2.1-1.3,2.1-2.4l0,0c0-1.2-2.1-2.6-2.1-2.6h-28.7c-2.5,0-4.5-2-4.5-4.5l0,0c0-2.5,2-4.5,4.5-4.5H1196"/>
<path class="st3" d="M1250,368.7h87.9c0,0,2.1-1.3,2.1-2.4l0,0c0-1.2-2.1-2.6-2.1-2.6h-1.9c-1.9,0-3.5-1.6-3.5-3.5l0,0
	c0-1.9,1.6-3.5,3.5-3.5h51.9c1.9,0,3.5,1.6,3.5,3.5l0,0c0,1.9-1.6,3.5-3.5,3.5h-6.8c0,0-2.1,1.4-2.1,2.6l0,0c0,1.2,0.9,2.1,2.1,2.4
	h148.8c1.2-0.3,2.1-1.3,2.1-2.4l0,0c0-1.2-2.1-2.6-2.1-2.6h-28.7c-2.5,0-4.5-2-4.5-4.5l0,0c0-2.5,2-4.5,4.5-4.5H1650"/>
<g>
	<g>
		<rect x="182" y="348.2" class="st4" width="16" height="7"/>
		<path class="st1" d="M182,355.2v3h4.2c0.4-1.2,1.5-2,2.8-2s2.4,0.8,2.8,2h6.2v-3H182z"/>
		<path class="st7" d="M204,349.2h-5v9h1.2c0.4-1.2,1.5-2,2.8-2s2.4,0.8,2.8,2h2.2v-5L204,349.2z M207,354.2h-7v-4h4l3,3V354.2z"/>
		<path class="st4" d="M189,357.2c-1.1,0-2,0.9-2,2s0.9,2,2,2s2-0.9,2-2S190.1,357.2,189,357.2z M189,360.2c-0.6,0-1-0.4-1-1
			s0.4-1,1-1s1,0.4,1,1S189.5,360.2,189,360.2z"/>
		<path class="st4" d="M203,357.2c-1.1,0-2,0.9-2,2s0.9,2,2,2s2-0.9,2-2S204.1,357.2,203,357.2z M203,360.2c-0.6,0-1-0.4-1-1
			s0.4-1,1-1s1,0.4,1,1S203.5,360.2,203,360.2z"/>
	</g>
</g>
<g>
	<path class="st1" d="M1114,297h-10v11h10V297z M1113,307h-8v-9h8V307z"/>
	<path class="st1" d="M1090,284h-10v11h10V284z M1089,294h-8v-9h8V294z"/>
	<path class="st1" d="M1114,284h-10v11h10V284z M1113,294h-8v-9h8V294z"/>
	<path class="st1" d="M1090,308v-11h-10v11H1090z M1081,298h8v9h-8V298z"/>
	<path class="st1" d="M1102,284h-10v11h10V284z M1101,294h-8v-9h8V294z"/>
	<path class="st1" d="M1102,297h-10v11h10V297z M1101,307h-8v-9h8V307z"/>
	<path class="st1" d="M1074,273v7h2v49h7v-13h14v12h1v-12h12v13h8v-49h1v-7H1074z M1083,315v-2h27v2H1083z M1117,328h-6v-16h-29v16
		h-5v-48h40V328z"/>
</g>
<g>
	<g>
		<path class="st1" d="M272.3,378.9c-5.8,0-9.6-0.6-10.4-2.1c-0.3-0.5-0.4-1.2,0.4-2.3c0.9-1.1,0.6-1.6,0.5-1.8
			c-2.3-4.1-30.5-0.9-47.3,1.1c-7.7,0.9-13.9,1.6-16.4,1.5c-2.5,0-8.5,0.4-16.1,1c-26.2,2-48.1,3.4-50.5-0.2
			c-0.2-0.3-0.4-0.9-0.1-1.6c0.2-0.5,0.1-0.8,0-0.9c-2.2-3-23.8-0.7-37.8,1.6c-6.6,1.2-28.4,4.9-29.6,1.9c-0.4-1,1-2,2.2-2.8
			c2-1.3,1.9-1.7,1.9-1.8c-0.6-1.7-56.7-0.7-69.1,1.1v-1c6.2-0.9,68.9-3.6,70-0.4c0.4,1.1-1.1,2.2-2.3,2.9c-1.8,1.1-1.8,1.6-1.8,1.6
			c0.5,1.4,13.3,0.3,28.5-2.5c3.6-0.6,35.4-5.7,38.7-1.3c0.3,0.4,0.5,1.1,0.1,2c-0.1,0.3-0.1,0.5,0,0.6c2.3,3.4,31.9,1.1,49.6-0.3
			c7.6-0.6,13.7-1.1,16.2-1c2.5,0,8.5-0.7,16.2-1.5c25-2.8,45.9-4.8,48.3-0.6c0.5,0.8,0.3,1.8-0.6,2.9c-0.6,0.7-0.4,1.1-0.3,1.2
			c1.7,3.2,25.3,0.9,40.9-0.7c7.1-0.7,13.3-1.3,16.8-1.4v1c-3.5,0.1-9.6,0.7-16.7,1.4C291,377.9,279.8,378.9,272.3,378.9z"/>
		<path class="st1" d="M1009.7,383.6c-18,0-18.1-0.8-18.1-1.4c-0.1-0.6,0.3-1.1,6-2c5.2-0.8,7-1.4,7.6-1.6c-5.3-2-60.9-1-101.8-0.3
			c-19.7,0.3-38.4,0.7-50.5,0.7v-1c12.1,0,30.7-0.3,50.5-0.7c23-0.4,49.1-0.8,68.8-0.9c34-0.1,34.1,1.2,34.2,2.1
			c0.1,0.6,0.1,1.3-8.7,2.7c-2.6,0.4-3.9,0.7-4.6,0.9c9.7,1.8,138.8-1.4,202.8-4.2v1c-0.4,0-76.7,1.8-118.7,3.2
			C1042.6,383.2,1022,383.6,1009.7,383.6z"/>
		<path class="st1" d="M1385.7,383.6c-18,0-18.1-0.8-18.1-1.4c-0.1-0.6,0.3-1.1,6-2c5.2-0.8,7-1.4,7.6-1.6c-5.3-2-60.9-1-101.8-0.3
			c-19.7,0.3-38.4,0.7-50.5,0.7v-1c12.1,0,30.7-0.3,50.5-0.7c23-0.4,49.1-0.8,68.8-0.9c34-0.1,34.1,1.2,34.2,2.1
			c0.1,0.6,0.1,1.3-8.7,2.7c-2.6,0.4-3.9,0.7-4.6,0.9c9.7,1.8,138.8-1.4,202.8-4.2v1c-0.4,0-76.7,1.8-118.7,3.2
			C1418.6,383.2,1398,383.6,1385.7,383.6z"/>
		<path class="st1" d="M601,380.2c-6.5,0-8.4-0.4-8.5-1.1c-0.1-0.6-0.1-1.1,7.7-2.6c1.9-0.4,2.9-0.6,3.5-0.8
			c-5-0.8-31.9,0.1-55.9,0.9c-22.4,0.7-45.6,1.5-58.8,1.3v-1c13.2,0.2,36.4-0.6,58.8-1.3c48.2-1.6,57.3-1.6,57.5,0
			c0.1,0.6-0.2,1-4.9,1.9c-3.9,0.7-5.6,1.2-6.4,1.5c4.5,0.8,30.9-0.4,52.3-1.4c17-0.8,34.6-1.6,44-1.6c0.2,0,0.3,0,0.5,0
			c7.9,0,16.3,0,25.1-0.1c20.6-0.1,44-0.2,66.1,0.6v1c-22-0.8-45.4-0.7-66-0.6c-8.8,0-17.2,0.1-25.1,0.1c-9.2,0-27.1,0.8-44.4,1.6
			C622.3,379.6,608.6,380.2,601,380.2z"/>
		<path class="st1" d="M623.5,390.5c-6.7,0-7.1-0.3-7.2-0.8c0-0.6-0.1-0.9,9.7-1.9c2.9-0.3,4.5-0.5,5.5-0.7
			c-13.5-1.7-122.2,0.2-169.9,1.2c-1,0.2-4.3,0.3-14.8,0.5c-4,0.1-6,0.1-7,0c-0.3,0-0.4,0-0.5,0v-0.1c-0.6-0.1-0.6-0.2-0.6-0.4
			c0-0.1,0-0.3,0.2-0.4c-31.6-0.2-89.3-0.2-126.7,0c-61,0.3-108.8,0.8-109.2,0.9v-1c0.5,0,48.3-0.6,109.3-0.9
			c25.6-0.1,63.3-0.1,93.8-0.1c16.3,0,30,0.1,39.4,0.2c10,0.1,14,0.1,15.6,0.3c19.1-0.4,48.3-1,77.4-1.4c95.1-1.3,95.2,0.2,95.3,1.1
			c0,0.6,0.1,1-7.5,1.8c-2.8,0.3-4.7,0.5-6.1,0.7c7.4,0.2,27.7-0.4,50.4-1c39.8-1.1,89.4-2.5,114.8-1.5c51.7,2,96.1,1.4,125.4,1.1
			h0.2v1h-0.2c-29.4,0.4-73.7,0.9-125.5-1.1c-25.4-1-74.9,0.4-114.8,1.5C644,390.2,630.4,390.5,623.5,390.5z"/>
	</g>
	<g>
		<g>
			<rect x="388" y="327" class="st2" width="61" height="36"/>
			<path class="st1" d="M448,328v34h-59v-34H448 M449,327h-61v36h61V327L449,327z"/>
		</g>
		<g>
			<path class="st2" d="M449,335v-1h-5v-7h-2v7h-4v-7h-2v7h-4v-7h-2v7h-4v-7h-2v7h-4v-7h-2v7h-4v-7h-2v7h-4v-7h-2v7h-4v-7h-2v7h-4
				v-7h-2v7h-5v1h5v5h-5v1h5v5h-5v1h5v5h-5v1h5v6h2v-6h4v6h2v-6h4v6h2v-6h4v6h2v-6h4v6h2v-6h4v6h2v-6h4v2h2v-2h4v2h2v-2h4v2h2v-2h5
				v-1h-5v-5h5v-1h-5v-5h5v-1h-5v-5H449z M436,335v5h-4v-5H436z M408,341h4v5h-4V341z M406,346h-4v-5h4V346z M414,341h4v5h-4V341z
				 M420,341h4v5h-4V341z M426,341h4v5h-4V341z M432,341h4v5h-4V341z M430,335v5h-4v-5H430z M424,335v5h-4v-5H424z M418,335v5h-4v-5
				H418z M412,335v5h-4v-5H412z M406,335v5h-4v-5H406z M396,335h4v5h-4V335z M396,341h4v5h-4V341z M396,352v-5h4v5H396z M402,352v-5
				h4v5H402z M408,352v-5h4v5H408z M414,352v-5h4v5H414z M420,352v-5h4v5H420z M426,352v-5h4v5H426z M432,352v-5h4v5H432z M442,352
				h-4v-5h4V352z M442,346h-4v-5h4V346z M442,340h-4v-5h4V340z"/>
			<path class="st1" d="M443,328v6.3V328 M395,335v5.3v1v5v1v5v1v5v-5v-1v-5v-1v-5v-1V335 M443,353v1.3V353 M437,353v1.3V353
				 M431,353v1.3V353 M425,353v5.3V353 M419,353v5.3V353 M413,353v5.3V353 M407,353v5.3V353 M401,353v5.3V353 M444,327h-2v7h-4v-7
				h-2v7h-4v-7h-2v7h-4v-7h-2v7h-4v-7h-2v7h-4v-7h-2v7h-4v-7h-2v7h-4v-7h-2v7h-4v-7h-2v7h-5v1h5v5h-5v1h5v5h-5v1h5v5h-5v1h5v6h2v-6
				h4v6h2v-6h4v6h2v-6h4v6h2v-6h4v6h2v-6h4v6h2v-6h4v2h2v-2h4v2h2v-2h4v2h2v-2h5v-1h-5v-5h5v-1h-5v-5h5v-1h-5v-5h5v-1h-5V327
				L444,327z M438,340v-5h4v5H438L438,340z M432,340v-5h4v5H432L432,340z M426,340v-5h4v5H426L426,340z M420,340v-5h4v5H420L420,340
				z M414,340v-5h4v5H414L414,340z M408,340v-5h4v5H408L408,340z M402,340v-5h4v5H402L402,340z M396,340v-5h4v5H396L396,340z
				 M438,346v-5h4v5H438L438,346z M432,346v-5h4v5H432L432,346z M426,346v-5h4v5H426L426,346z M420,346v-5h4v5H420L420,346z
				 M414,346v-5h4v5H414L414,346z M408,346v-5h4v5H408L408,346z M402,346v-5h4v5H402L402,346z M396,346v-5h4v5H396L396,346z
				 M438,352v-5h4v5H438L438,352z M432,352v-5h4v5H432L432,352z M426,352v-5h4v5H426L426,352z M420,352v-5h4v5H420L420,352z
				 M414,352v-5h4v5H414L414,352z M408,352v-5h4v5H408L408,352z M402,352v-5h4v5H402L402,352z M396,352v-5h4v5H396L396,352z"/>
		</g>
		<g>
			<rect x="345" y="347" class="st0" width="12" height="12"/>
			<path class="st1" d="M358,360h-13v-13h13V360z M346,359h11v-11h-11V359z"/>
		</g>
		<g>
			<rect x="357" y="347" class="st0" width="12" height="12"/>
			<path class="st1" d="M370,360h-13v-13h13V360z M358,359h11v-11h-11V359z"/>
		</g>
		<g>
			<rect x="367" y="335" class="st0" width="12" height="12"/>
			<path class="st1" d="M380,348h-13v-13h13V348z M368,347h11v-11h-11V347z"/>
		</g>
		<g>
			<rect x="354" y="335" class="st0" width="12" height="12"/>
			<path class="st1" d="M366.5,348h-12c-0.3,0-0.5-0.2-0.5-0.5v-12c0-0.3,0.2-0.5,0.5-0.5h12c0.3,0,0.5,0.2,0.5,0.5v12
				C367,347.7,366.8,348,366.5,348z M355,347h11v-11h-11V347z"/>
		</g>
		<g>
			<rect x="370" y="347" class="st0" width="12" height="12"/>
			<path class="st1" d="M382.5,360h-12c-0.3,0-0.5-0.2-0.5-0.5v-12c0-0.3,0.2-0.5,0.5-0.5h12c0.3,0,0.5,0.2,0.5,0.5v12
				C383,359.7,382.8,360,382.5,360z M371,359h11v-11h-11V359z"/>
		</g>
		<g>
			<path class="st0" d="M424.1,351l-12.6,9h-78c0,20.8,16.1,22,16.1,22h90.7c22.1,0,23-31,23-31H424.1z M430.5,363.2
				c-1.9,0-3.5-1.6-3.5-3.5s1.6-3.5,3.5-3.5s3.5,1.6,3.5,3.5S432.4,363.2,430.5,363.2z M441.5,363.2c-1.9,0-3.5-1.6-3.5-3.5
				s1.6-3.5,3.5-3.5s3.5,1.6,3.5,3.5S443.4,363.2,441.5,363.2z M452.5,363.2c-1.9,0-3.5-1.6-3.5-3.5s1.6-3.5,3.5-3.5
				s3.5,1.6,3.5,3.5S454.4,363.2,452.5,363.2z"/>
			<path class="st1" d="M463,351.7c0,0-0.8,30.3-22.4,30.3h-91c0,0-16.1-1.2-16.1-22h78l12.6-9H463 M452.5,363.2
				c1.9,0,3.5-1.6,3.5-3.5s-1.6-3.5-3.5-3.5s-3.5,1.6-3.5,3.5S450.5,363.2,452.5,363.2 M441.5,363.2c1.9,0,3.5-1.6,3.5-3.5
				s-1.6-3.5-3.5-3.5s-3.5,1.6-3.5,3.5S439.5,363.2,441.5,363.2 M430.5,363.2c1.9,0,3.5-1.6,3.5-3.5s-1.6-3.5-3.5-3.5
				s-3.5,1.6-3.5,3.5S428.5,363.2,430.5,363.2 M463.3,350L463.3,350h-39H424l-0.3,0.2l-11.9,8.8H334h-1v0.6
				c0,21,16.4,22.4,16.6,22.4l0,0l0,0H440c9.2,0,16.2-5.4,20.1-15.6c2.9-7.6,3.1-15,3.2-15.3L463.3,350L463.3,350z M452.5,362.2
				c-1.4,0-2.5-1.1-2.5-2.5s1.1-2.5,2.5-2.5s2.5,1.1,2.5,2.5S453.8,362.2,452.5,362.2L452.5,362.2z M441.5,362.2
				c-1.4,0-2.5-1.1-2.5-2.5s1.1-2.5,2.5-2.5s2.5,1.1,2.5,2.5S442.8,362.2,441.5,362.2L441.5,362.2z M430.5,362.2
				c-1.4,0-2.5-1.1-2.5-2.5s1.1-2.5,2.5-2.5s2.5,1.1,2.5,2.5S431.8,362.2,430.5,362.2L430.5,362.2z"/>
		</g>
		<g>
			<rect x="342" y="364" class="st2" width="27" height="2"/>
			<polygon class="st1" points="369,364 342,364 342,366 369,366 			"/>
		</g>
		<g>
			<rect x="377" y="364" class="st2" width="27" height="2"/>
			<polygon class="st1" points="404,364 377,364 377,366 404,366 			"/>
		</g>
		<g>
			<rect x="412" y="364" class="st2" width="27" height="2"/>
			<polygon class="st1" points="439,364 412,364 412,366 439,366 			"/>
		</g>
	</g>
	<g>
		<g>
			<path class="st0" d="M324,376v2.7c0,4.1,3.4,7.5,7.5,7.5l0,0c4.1,0,7.5-3.4,7.5-7.5V376"/>
			<path class="st1" d="M332.5,386.8c-4.6,0.3-8.5-3.4-8.5-8.1V376h1v2.6c0,3.6,2.6,6.8,6.1,7.3c4.2,0.5,7.9-2.8,7.9-7V376h1v2.6
				C340,382.8,336.8,386.5,332.5,386.8z"/>
		</g>
		<g>
			<path class="st0" d="M340,376v2.7c0,4.1,3.4,7.5,7.5,7.5l0,0c4.1,0,7.5-3.4,7.5-7.5V376"/>
			<path class="st1" d="M347.5,386.8c-4.6,0.3-8.5-3.4-8.5-8.1V376h1v2.6c0,3.6,2.6,6.8,6.1,7.2c4.2,0.5,7.9-2.8,7.9-7V376h1v2.6
				C355,382.8,351.8,386.5,347.5,386.8z"/>
		</g>
		<g>
			<path class="st0" d="M355,376v2.7c0,4.1,3.4,7.5,7.5,7.5l0,0c4.1,0,7.5-3.4,7.5-7.5V376"/>
			<path class="st1" d="M363.5,386.8c-4.6,0.3-8.5-3.4-8.5-8.1V376h1v2.6c0,3.6,2.6,6.8,6.1,7.3c4.2,0.5,7.9-2.8,7.9-7V376h1v2.6
				C371,382.8,367.8,386.5,363.5,386.8z"/>
		</g>
		<g>
			<path class="st0" d="M371,376v2.7c0,4.1,3.4,7.5,7.5,7.5l0,0c4.1,0,7.5-3.4,7.5-7.5V376"/>
			<path class="st1" d="M378.5,386.8c-4.6,0.3-8.5-3.4-8.5-8.1V376h1v2.6c0,3.6,2.6,6.8,6.1,7.2c4.2,0.5,7.9-2.8,7.9-7V376h1v2.6
				C386,382.8,382.8,386.5,378.5,386.8z"/>
		</g>
		<g>
			<path class="st0" d="M386,376v2.7c0,4.1,3.4,7.5,7.5,7.5l0,0c4.1,0,7.5-3.4,7.5-7.5V376"/>
			<path class="st1" d="M394.5,386.8c-4.6,0.3-8.5-3.4-8.5-8.1V376h1v2.6c0,3.6,2.6,6.8,6.1,7.3c4.2,0.5,7.9-2.8,7.9-7V376h1v2.6
				C402,382.8,398.8,386.5,394.5,386.8z"/>
		</g>
		<g>
			<path class="st0" d="M402,376v2.7c0,4.1,3.4,7.5,7.5,7.5l0,0c4.1,0,7.5-3.4,7.5-7.5V376"/>
			<path class="st1" d="M409.5,386.8c-4.6,0.3-8.5-3.4-8.5-8.1V376h1v2.6c0,3.6,2.6,6.8,6.1,7.3c4.2,0.5,7.9-2.8,7.9-7V376h1v2.6
				C417,382.8,413.8,386.5,409.5,386.8z"/>
		</g>
		<g>
			<path class="st0" d="M417,376v2.7c0,4.1,3.4,7.5,7.5,7.5l0,0c4.1,0,7.5-3.4,7.5-7.5V376"/>
			<path class="st1" d="M425.5,386.8c-4.6,0.3-8.5-3.4-8.5-8.1V376h1v2.6c0,3.6,2.6,6.8,6.1,7.2c4.2,0.5,7.9-2.8,7.9-7V376h1v2.6
				C433,382.8,429.8,386.5,425.5,386.8z"/>
		</g>
		<g>
			<path class="st0" d="M449,376v2.7c0,4.1,3.4,7.5,7.5,7.5l0,0c4.1,0,7.5-3.4,7.5-7.5V376"/>
			<path class="st1" d="M456.5,386.8c-4.6,0.3-8.5-3.4-8.5-8.1V376h1v2.6c0,3.6,2.6,6.8,6.1,7.2c4.2,0.5,7.9-2.8,7.9-7V376h1v2.6
				C464,382.8,460.8,386.5,456.5,386.8z"/>
		</g>
		<g>
			<path class="st0" d="M433,376v2.7c0,4.1,3.4,7.5,7.5,7.5l0,0c4.1,0,7.5-3.4,7.5-7.5V376"/>
			<path class="st1" d="M441.5,386.8c-4.6,0.3-8.5-3.4-8.5-8.1V376h1v2.6c0,3.6,2.6,6.8,6.1,7.3c4.2,0.5,7.9-2.8,7.9-7V376h1v2.6
				C449,382.8,445.8,386.5,441.5,386.8z"/>
		</g>
	</g>
</g>
<g>
	<path class="st1" d="M924,281.6c-4.1,1.2-8.1,2.4-12,3.7v1c3.9-1.2,7.9-2.5,12-3.7V281.6z"/>
	<path class="st1" d="M1067,258.4v1.1c5.3-0.1,10.6-0.1,16-0.1v-1.1C1077.7,258.2,1072.4,258.3,1067,258.4z"/>
	<path class="st1" d="M1630,243.4v1.1c5.3-0.1,10.6-0.1,16-0.1v-1.1C1640.7,243.2,1635.4,243.3,1630,243.4z"/>
</g>
<path class="st1" d="M1381,281.7c-17.2,1-33.4,1.3-48.4,1.3c-84.6-0.1-147.2-12.5-147.8-12.6c-19.3-4.3-39.3-7.4-59.8-9.4v1
	c19.7,1.9,39.6,5,59.5,9.4c0.6,0.1,63.3,12.5,148.1,12.7c16.4,0,32.6-0.4,48.4-1.3L1381,281.7L1381,281.7z"/>
</svg>
