<?xml version="1.0" encoding="UTF-8"?>
<!DOCTYPE svg PUBLIC "-//W3C//DTD SVG 1.1//EN" "http://www.w3.org/Graphics/SVG/1.1/DTD/svg11.dtd">
<!-- Creator: CorelDRAW 2019 (64-Bit) -->
<svg xmlns="http://www.w3.org/2000/svg" xml:space="preserve" width="43.3494mm" height="43.3494mm" version="1.1" style="shape-rendering:geometricPrecision; text-rendering:geometricPrecision; image-rendering:optimizeQuality; fill-rule:evenodd; clip-rule:evenodd"
viewBox="0 0 743.81 743.81"
 xmlns:xlink="http://www.w3.org/1999/xlink"
 xmlns:xodm="http://www.corel.com/coreldraw/odm/2003">
 <defs>
  <style type="text/css">
   <![CDATA[
    .fil13 {fill:none}
    .fil1 {fill:#2B2A29}
    .fil12 {fill:#324A5E}
    .fil2 {fill:#C1D1E0}
    .fil5 {fill:#E5F3FA}
    .fil8 {fill:#E6E9EE}
    .fil7 {fill:#EDD9A5}
    .fil6 {fill:#F0DBA6}
    .fil3 {fill:#F1543F}
    .fil0 {fill:#F8E2AD}
    .fil11 {fill:#F9B54C}
    .fil4 {fill:#FF7058}
    .fil9 {fill:#FFD05B}
    .fil10 {fill:white}
   ]]>
  </style>
   <clipPath id="id0">
    <path d="M371.9 0c205.4,0 371.9,166.51 371.9,371.9 0,205.4 -166.51,371.9 -371.9,371.9 -205.4,0 -371.9,-166.51 -371.9,-371.9 0,-205.4 166.51,-371.9 371.9,-371.9z"/>
   </clipPath>
 </defs>
 <g id="Layer_x0020_1">
  <metadata id="CorelCorpID_0Corel-Layer"/>
  <g>
  </g>
  <g style="clip-path:url(#id0)">
   <g>
    <g id="_2118660550816">
     <path class="fil0" d="M243.65 218.05c-1.31,12.43 -0.81,54.25 3.11,64.91 0.76,10.97 18.38,50.89 23.88,60.33 14.79,25.36 34.95,40.05 37.2,46.97 19.84,13.56 32.97,28.65 65.95,27.38 19.05,-0.74 47.21,-15.43 61.41,-28.97 0.27,-0.25 0.7,-0.68 0.92,-0.89 0.23,-0.22 0.61,-0.64 0.94,-0.92 10.11,-5.83 30.43,-29.84 38.1,-43.72 5.35,-9.68 21.59,-50.37 23.05,-60.47 0.21,-0.36 0.5,-0.81 0.62,-1.08l1.09 -2.26c2.19,-5.88 1.46,-55.43 1.38,-61.82l-0.42 -18.77c-135.95,-1.09 -146.95,-53.02 -167.03,-62.04 -4.84,4.86 -9.44,17.42 -14.42,24.12 -18.95,25.5 -42.35,34.4 -75.62,37.78l-0.18 19.46z"/>
     <path class="fil1" d="M201.01 227.11c19.53,-9.35 16.89,-9.01 42.64,-9.06l0.18 -19.46c33.27,-3.38 56.67,-12.28 75.62,-37.78 4.98,-6.71 9.59,-19.26 14.42,-24.12 20.08,9.02 31.08,60.95 167.03,62.04l0.42 18.77c27.67,2.99 18.73,-2.28 42.18,9.34 0,-80.6 -43.56,-170.98 -127.82,-192.44 -52.18,-13.29 -118.13,3.76 -158.23,40.83 -10.42,9.63 -23.52,27.23 -29.9,39.49 -13.12,25.24 -24.31,60.87 -25.12,90.02 -0.28,9.98 0.44,13.88 -1.43,22.38z"/>
     <path class="fil2" d="M258.05 474.55c3.8,21.95 12.18,47.82 17.82,70.18l51.33 206.27 90.41 0c1.7,-10.51 6.42,-23.43 9.09,-34.13 2.93,-11.73 6.06,-23.49 9.02,-35.25 7.78,-30.83 49,-194.36 51.55,-212.38l-2.97 4.11c-14.77,21.78 -49.83,86.37 -60.39,95.95 -6.6,-4.22 -44.76,-57.42 -51.67,-60.59 -7.3,4.89 -18.35,22.12 -25.94,30.35 -5.37,5.83 -17.48,26.76 -24.26,30.59 -5.5,-2.43 -5.65,-5.27 -9.49,-11.43l-51.51 -81.54c-2.58,-2.36 0.69,-0.2 -3.01,-2.12z"/>
     <path class="fil3" d="M423.74 524.57l-18.51 45.17 -63.63 0 -18.51 -45.17c25.45,-13.41 50.33,-15.53 50.33,-15.53 0,0 25.45,2.12 50.33,15.53z"/>
     <path class="fil4" d="M321.35 751c35.52,-0.33 71.04,-0.56 104.12,0l-20.25 -181.25 -63.63 0 -20.25 181.25z"/>
     <path class="fil1" d="M178.86 484.1c12.06,-3.15 21.92,-7.91 35.49,-10.67 14.29,-2.9 27.92,-3.6 42.69,-5.29 7.89,-5.13 15.82,-12.14 23.98,-18 8.4,-6.03 15.38,-14.01 25.29,-17.8 4.03,-12.33 2.15,-27.93 1.54,-42.08 -2.24,-6.91 -22.4,-21.61 -37.2,-46.97 -5.5,-9.44 -23.13,-49.36 -23.88,-60.33 -24.92,-1.78 -35.1,-1.21 -50.19,-14.09 0,29.26 -7.94,98.23 -11.56,132.5l-6.15 82.73z"/>
     <path class="fil1" d="M498.22 282.66c-1.46,10.1 -17.7,50.79 -23.05,60.47 -7.67,13.88 -27.99,37.89 -38.1,43.72 -0.53,14.12 -3.06,33.16 1.53,45.07 15.9,6.99 35.28,25.96 48.8,35.65 11.22,2.72 29.23,2.52 42.46,4.89 15.07,2.7 23.45,7.06 35.79,10.73l-3.58 -53.4c-5.22,-36.9 -14.14,-127.31 -14.14,-162.04 -5.75,4.42 -9.64,11.02 -19.52,13.54 -9.75,2.49 -20.11,1.38 -30.2,1.36z"/>
     <path class="fil5" d="M257.04 468.14l1.01 6.41c3.7,1.92 0.43,-0.24 3.01,2.12l51.51 81.54c3.84,6.16 3.98,9 9.49,11.43 6.78,-3.83 18.88,-24.76 24.26,-30.59 7.59,-8.23 18.64,-25.46 25.94,-30.35 6.91,3.17 45.07,56.37 51.67,60.59 10.56,-9.59 45.62,-74.18 60.39,-95.95l2.97 -4.11 0.11 -1.66c-13.51,-9.68 -32.9,-28.66 -48.8,-35.65l-4.66 -0.37c-3.17,6.21 -57.86,71.25 -61.68,73.67 -13.52,-7.89 -53.94,-71.92 -65.95,-72.89 -9.91,3.79 -16.89,11.77 -25.29,17.8 -8.16,5.86 -16.09,12.87 -23.98,18z"/>
     <path class="fil6" d="M307.84 390.25c0.61,14.15 2.49,29.75 -1.54,42.08 12.01,0.97 52.43,65 65.95,72.89 3.82,-2.42 58.51,-67.46 61.68,-73.67l4.66 0.37c-4.59,-11.91 -2.06,-30.95 -1.53,-45.07 -0.33,0.29 -0.71,0.7 -0.94,0.92 -0.22,0.21 -0.66,0.63 -0.92,0.89 -14.2,13.53 -42.36,28.23 -61.41,28.97 -32.98,1.27 -46.11,-13.81 -65.95,-27.38z"/>
     <path class="fil2" d="M191.13 751l29.06 0.56c-11.73,-17.59 -22.87,-65.79 -23.83,-87.64 -2.42,-54.87 7.33,-58.23 8.33,-76.8 0.47,-8.77 -3.98,-16.01 -12.21,-15.45 -22.26,1.52 -23.79,66.59 -21.98,87.69 3.05,35.43 12.14,60.12 20.63,91.65z"/>
     <path class="fil2" d="M526.24 751l27.38 0c8.92,-35.8 16.14,-46.74 20.17,-90.65 2,-21.78 0.61,-87.61 -21.41,-88.34 -19.21,-0.63 -9.41,25.81 -6.61,38.02 4.03,17.6 3.74,33.87 3.77,52.39 0.08,40.58 -13.24,57.47 -23.3,88.58z"/>
     <path class="fil7" d="M498.22 282.66c10.08,0.02 20.45,1.13 30.2,-1.36 9.88,-2.52 13.76,-9.12 19.52,-13.54 2.55,-9.19 5.36,-6.78 4.52,-21.7 -0.55,-9.77 -5.1,-13.26 -8.95,-19.23 -23.45,-11.61 -14.52,-6.34 -42.18,-9.34 0.08,6.39 0.81,55.94 -1.38,61.82l-1.09 2.26c-0.13,0.27 -0.42,0.72 -0.62,1.08z"/>
     <path class="fil7" d="M201.01 227.11c-3.73,5.1 -8.13,9.4 -8.87,17.53 -1.16,12.8 0.4,16.58 4.44,24.23 15.08,12.87 25.27,12.31 50.19,14.09 -3.93,-10.66 -4.42,-52.48 -3.11,-64.91 -25.75,0.04 -23.11,-0.3 -42.64,9.06z"/>
     <path class="fil8" d="M487.28 469.23c-2.54,18.02 -43.77,181.56 -51.55,212.38 -2.97,11.76 -6.1,23.52 -9.02,35.25 -2.67,10.71 -7.39,23.63 -9.09,34.13l108.62 0c10.05,-31.11 23.37,-48 23.3,-88.58 -0.03,-18.52 0.26,-34.79 -3.77,-52.39 -2.8,-12.22 -12.6,-38.66 6.61,-38.02 22.03,0.73 23.42,66.56 21.41,88.34 -4.03,43.9 -11.25,54.85 -20.17,90.65l88.79 0c0,-14.27 0.03,-28.54 -0,-42.81 -0.14,-61.38 11.5,-133.86 -28.65,-185.41 -9.88,-12.68 -32.75,-32.41 -48.12,-39.58 -12.34,-3.68 -20.73,-8.04 -35.79,-10.73 -13.24,-2.37 -31.24,-2.18 -42.46,-4.89l-0.11 1.66z"/>
     <path class="fil8" d="M178.86 484.1c-7.21,5.18 -12.42,4.87 -26.24,16.26 -68.64,56.58 -50.52,158.81 -50.52,250.64l89.04 0c-8.49,-31.53 -17.59,-56.22 -20.63,-91.65 -1.81,-21.1 -0.28,-86.17 21.98,-87.69 8.23,-0.56 12.69,6.68 12.21,15.45 -1,18.57 -10.75,21.93 -8.33,76.8 0.97,21.85 12.1,70.05 23.83,87.64l107.01 -0.56 -51.33 -206.27c-5.64,-22.36 -14.03,-48.23 -17.82,-70.18l-1.01 -6.41c-14.77,1.69 -28.4,2.39 -42.69,5.29 -13.56,2.76 -23.43,7.52 -35.49,10.67z"/>
    </g>
    <g id="_2118660545216">
     <g>
      <path class="fil8" d="M2117.65 399.49c-2.57,0 -5.15,2.57 -10.3,2.57 -2.57,0 -5.15,-2.57 -10.3,-2.57l20.59 0z"/>
      <path class="fil8" d="M3425.12 662.01c-295.98,404.08 -777.28,669.18 -1317.76,669.18 -540.49,0 -1019.21,-262.52 -1317.76,-669.18 231.64,-247.08 545.64,-378.34 808.16,-445.26 -23.16,187.88 74.64,440.11 77.21,432.39 97.8,-226.49 429.82,-247.08 429.82,-247.08 0,0 332.01,18.02 432.39,247.08 2.57,5.15 100.38,-244.51 77.21,-432.39 265.1,66.92 579.1,198.18 810.73,445.26z"/>
     </g>
     <path class="fil9" d="M2514.01 44.31l0 0c0,33.46 -20.59,211.05 -396.36,355.18l-20.59 0c-375.77,-144.13 -396.36,-321.72 -396.36,-355.18l0 0c2.57,-66.92 18.02,-133.84 46.33,-195.61 102.95,115.82 226.49,193.03 360.33,193.03 131.26,0 257.38,-74.64 360.33,-193.03 28.31,61.77 46.33,128.69 46.33,195.61z"/>
     <g>
      <path class="fil3" d="M2331.27 458.68l-82.36 164.72 -283.11 0 -82.36 -164.72c113.25,-48.9 223.92,-56.62 223.92,-56.62 0,0 113.25,7.72 223.92,56.62z"/>
      <path class="fil4" d="M1878.29 1315.74c74.64,10.3 151.85,15.44 231.64,15.44 77.21,0 154.43,-5.15 231.64,-15.44l-90.08 -689.77 -283.11 0 -90.08 689.77z"/>
     </g>
     <g>
      <path class="fil10" d="M2514.01 39.16c0,0 18.02,205.9 -406.65,362.9 0,0 332.01,18.02 432.39,247.08 2.57,10.3 195.61,-489.01 -25.74,-609.98z"/>
      <path class="fil10" d="M1700.7 39.16c-218.77,120.97 -28.31,617.7 -23.16,609.98 97.8,-226.49 432.39,-247.08 432.39,-247.08 -427.24,-157 -409.23,-362.9 -409.23,-362.9z"/>
     </g>
     <path class="fil11" d="M2488.27 -99.82c-108.1,115.82 -236.79,190.46 -380.92,190.46 -144.13,0 -272.82,-74.64 -380.92,-190.46 5.15,-18.02 12.87,-36.03 20.59,-51.48 102.95,115.82 226.49,193.03 360.33,193.03 133.84,0 257.38,-74.64 360.33,-193.03 7.72,15.44 15.44,33.46 20.59,51.48z"/>
     <path class="fil9" d="M2809.99 -493.61c-54.05,90.08 -136.41,144.13 -198.18,133.84 -123.54,229.06 -303.7,398.93 -504.46,398.93 -200.75,0 -380.92,-172.44 -504.46,-398.93 -61.77,7.72 -144.13,-43.75 -198.18,-133.84 -64.34,-105.52 -66.92,-221.34 -5.15,-259.95 15.44,-7.72 30.89,-12.87 48.9,-10.3 41.18,105.52 97.8,169.87 97.8,169.87 -59.2,-326.87 182.74,-362.9 141.56,-676.9 0,0 151.85,337.16 586.82,100.38l-33.46 64.34c607.41,-136.41 404.08,579.1 398.93,597.11 69.49,-87.51 113.25,-175.02 138.98,-254.8 10.3,0 23.16,5.15 30.89,10.3 66.92,36.03 64.34,154.43 0,259.95z"/>
     <path class="fil12" d="M2457.39 -1610.62c48.9,-5.15 128.69,38.61 128.69,38.61 -218.77,-249.65 -576.52,-90.08 -576.52,-90.08 120.97,-102.95 229.06,-92.66 229.06,-92.66 -512.18,-77.21 -599.69,229.06 -599.69,229.06 -23.16,-36.03 -23.16,-87.51 -20.59,-113.25 -36.03,61.77 2.57,185.31 2.57,185.31 -36.03,-90.08 -162.15,-74.64 -162.15,-74.64 108.1,18.02 126.11,84.93 126.11,84.93 -270.24,100.38 -223.92,380.92 -223.92,380.92l64.34 -77.21c-79.79,306.28 123.54,543.06 123.54,543.06 -59.2,-326.87 182.74,-362.9 141.56,-676.9 0,0 151.85,337.16 586.82,100.38l-33.46 64.34c615.13,-138.98 398.93,599.69 398.93,599.69 218.77,-277.97 185.31,-563.65 185.31,-563.65l25.74 102.95c69.49,-463.28 -396.36,-640.87 -396.36,-640.87z"/>
    </g>
   </g>
  </g>
  <path class="fil13" d="M371.9 0c205.4,0 371.9,166.51 371.9,371.9 0,205.4 -166.51,371.9 -371.9,371.9 -205.4,0 -371.9,-166.51 -371.9,-371.9 0,-205.4 166.51,-371.9 371.9,-371.9z"/>
  <rect class="fil13" x="0" y="0" width="743.8" height="743.8"/>
 </g>
</svg>
